<?xml version="1.0" encoding="UTF-8"?>
<svg version="1.1" xmlns="http://www.w3.org/2000/svg" width="577" height="433">
<path d="M0 0 C4.22922639 2.4859292 7.94825647 5.30188963 11.625 8.54296875 C12.35332031 9.16558594 13.08164062 9.78820312 13.83203125 10.4296875 C25.42329649 21.08715554 35.20130969 37.45887908 35.9609375 53.3828125 C35.98451799 55.08191752 35.99741163 56.78120208 36 58.48046875 C36.02449219 59.32287109 36.04898438 60.16527344 36.07421875 61.03320312 C36.10346891 67.36586214 34.57607727 71.97496928 31.625 77.54296875 C31.295 78.20296875 30.965 78.86296875 30.625 79.54296875 C29.965 79.54296875 29.305 79.54296875 28.625 79.54296875 C28.24214844 80.43628906 28.24214844 80.43628906 27.8515625 81.34765625 C26.49356936 83.77820448 25.2064574 84.98895137 23 86.66796875 C22.36835938 87.16554688 21.73671875 87.663125 21.0859375 88.17578125 C17.69974033 90.0570019 14.4056586 90.7107483 10.625 91.54296875 C10.63023682 92.17388428 10.63547363 92.8047998 10.64086914 93.45483398 C10.66157826 96.29670222 10.67464066 99.13855463 10.6875 101.98046875 C10.69587891 102.97369141 10.70425781 103.96691406 10.71289062 104.99023438 C10.71611328 105.93447266 10.71933594 106.87871094 10.72265625 107.8515625 C10.72789307 108.72611084 10.73312988 109.60065918 10.73852539 110.50170898 C10.625 112.54296875 10.625 112.54296875 9.625 113.54296875 C7.125 113.66796875 7.125 113.66796875 4.625 113.54296875 C1.94760793 110.86557668 3.19416381 103.44622342 3.125 99.85546875 C3.07085937 98.67017578 3.01671875 97.48488281 2.9609375 96.26367188 C2.82515441 87.6171988 2.82515441 87.6171988 5.13305664 84.51757812 C6.89881913 83.05574891 8.71544245 81.80657381 10.625 80.54296875 C15.17276502 74.31971136 15.52654245 66.99364718 14.625 59.54296875 C13.84200493 57.00606473 12.83966394 54.92168562 11.625 52.54296875 C11.625 51.55296875 11.625 50.56296875 11.625 49.54296875 C5.3507025 49.77535014 1.69420496 51.43922162 -3.55078125 54.8046875 C-6.68270066 56.73235574 -9.8875059 58.35794113 -13.1875 59.98046875 C-14.36570312 60.56957031 -15.54390625 61.15867187 -16.7578125 61.765625 C-19.17134075 62.96454025 -21.60308336 64.10786301 -24.0546875 65.2265625 C-30.31056519 67.90278018 -30.31056519 67.90278018 -34.5 72.87890625 C-34.86437567 74.44268518 -35.20699282 76.01175932 -35.5234375 77.5859375 C-36.375 79.54296875 -36.375 79.54296875 -38.5390625 80.78125 C-43.02123973 82.17614586 -47.68822022 83.24598572 -52.375 82.54296875 C-58.67676476 73.09032161 -56.19415318 54.48660939 -54.25 43.66796875 C-51.33805877 31.27528861 -46.55698052 19.43874248 -38.375 9.54296875 C-37.715 9.54296875 -37.055 9.54296875 -36.375 9.54296875 C-35.99408203 8.64771484 -35.99408203 8.64771484 -35.60546875 7.734375 C-28.41771999 -5.06666328 -11.72867818 -5.94763936 0 0 Z M-23.375 25.54296875 C-24.10990789 29.54413392 -23.76314018 30.96075849 -21.5 34.35546875 C-18.79555063 37.13946074 -17.95233296 37.4776103 -14.0625 37.91796875 C-9.46901813 37.450835 -8.26052015 36.02256657 -5.375 32.54296875 C-5.045 32.21296875 -4.715 31.88296875 -4.375 31.54296875 C-3.81134535 27.50344374 -4.25920336 25.74467902 -6.3125 22.16796875 C-8.64442558 19.65666428 -10.47278331 19.03152151 -13.875 18.79296875 C-19.13313168 19.16165244 -20.79902106 21.05577962 -23.375 25.54296875 Z " fill="#FAAA04" transform="translate(302.375,168.45703125)"/>
<path d="M0 0 C8.848125 -0.0825 17.69625 -0.165 26.8125 -0.25 C30.96936401 -0.30462402 30.96936401 -0.30462402 35.21020508 -0.36035156 C37.43830595 -0.37204804 39.66641546 -0.38223759 41.89453125 -0.390625 C43.59144104 -0.4213208 43.59144104 -0.4213208 45.32263184 -0.45263672 C55.13587785 -0.45688994 64.26894218 1.4016039 71.5703125 8.37109375 C77.41580848 15.03112605 79.32740363 22.44672841 78.8125 31.125 C77.96112973 38.83570571 74.83242555 44.82354407 69 50 C66.80859375 50.69921875 66.80859375 50.69921875 65 51 C69.24872538 57.72505349 73.55364102 64.40375316 78 71 C78.99 69.02 78.99 69.02 80 67 C93.93545986 66.1409648 93.93545986 66.1409648 97.875 69 C100.78789129 73.11231711 100.64003318 75.03974283 100 80 C99.34 80.99 98.68 81.98 98 83 C97.34 83 96.68 83 96 83 C96.66 83.928125 97.32 84.85625 98 85.8125 C100 89 100 89 100 92 C96.6875 92.25 96.6875 92.25 93 92 C91.0625 90.1875 91.0625 90.1875 90 88 C90 87.01 90 86.02 90 85 C88.35 85 86.7 85 85 85 C85.185625 85.598125 85.37125 86.19625 85.5625 86.8125 C86 89 86 89 85 92 C83.02 92 81.04 92 79 92 C79 89.03 79 86.06 79 83 C77.68 83.33 76.36 83.66 75 84 C70.55045528 85.00132385 66.5482693 85.16539161 62 85 C62 87.31 62 89.62 62 92 C60.00045254 92.04254356 57.99958364 92.04080783 56 92 C55.67 91.67 55.34 91.34 55 91 C55.01918411 89.12422027 55.04016353 87.24844218 55.07006836 85.37280273 C55.03786801 75.27747382 53.24601901 65.03606595 46.10205078 57.42578125 C38.98564179 52.59885576 27.80589853 54.61399403 20 55 C20 64.24 20 73.48 20 83 C13.4 83 6.8 83 0 83 C0 55.61 0 28.22 0 0 Z M20 18 C20 24.6 20 31.2 20 38 C24.18153431 38.06905286 28.3610734 38.12872548 32.54272461 38.16479492 C33.96369141 38.1798376 35.38461213 38.20027704 36.80541992 38.22631836 C38.85346886 38.26290347 40.9009015 38.27977097 42.94921875 38.29296875 C44.17987061 38.3086792 45.41052246 38.32438965 46.6784668 38.34057617 C51.33314721 37.86330464 53.90554218 36.31334939 56.875 32.75 C58.38321549 29.06325103 57.97410754 26.82685105 57 23 C55.17375749 19.84558112 54.51414502 19.17138167 51 18 C48.64319787 17.91602843 46.28405919 17.89271813 43.92578125 17.90234375 C43.2419487 17.9037587 42.55811615 17.90517365 41.8535614 17.90663147 C39.67316278 17.91222124 37.49286749 17.92477178 35.3125 17.9375 C33.83268378 17.94251633 32.35286594 17.947079 30.87304688 17.95117188 C27.24862624 17.9613357 23.62442856 17.9809129 20 18 Z M85 74 C85.33 75.65 85.66 77.3 86 79 C87.98 79 89.96 79 92 79 C92.33 77.35 92.66 75.7 93 74 C90.36 74 87.72 74 85 74 Z " fill="#FAAA06" transform="translate(154,190)"/>
<path d="M0 0 C9.35225954 7.41253164 15.55122385 17.01610164 17 29 C17.81946064 43.12140311 15.03839318 54.38688568 5.75 65.3125 C1.62981896 69.69406148 -2.5653462 72.50608621 -8 75 C-8.66386719 75.34804688 -9.32773437 75.69609375 -10.01171875 76.0546875 C-19.60572909 80.61608338 -31.39918165 80.08549566 -41.33203125 77.046875 C-53.65268725 72.21241554 -61.31612033 64.19678942 -67.75 52.9375 C-73.06944147 40.43681254 -71.62561868 28.35027975 -66.8125 15.9375 C-63.17259188 10.03833857 -58.91271457 3.78956863 -53 0 C-52.34 0 -51.68 0 -51 0 C-51 -0.66 -51 -1.32 -51 -2 C-34.18268664 -10.18999185 -16.0811838 -10.50975004 0 0 Z M-45 19 C-49.31809177 24.877726 -51.37035792 30.68262536 -51 38 C-49.90336013 44.9767184 -47.34185722 50.32898066 -42 55 C-35.64142372 59.5143139 -29.65187443 60.69219259 -22 60 C-16.31818599 58.71144575 -12.8714025 56.42446 -9 52 C-8.46375 51.54625 -7.9275 51.0925 -7.375 50.625 C-2.52357825 44.89150157 -2.42039194 38.63348996 -2.58203125 31.3828125 C-3.17861893 26.55435516 -4.82590334 23.60373958 -8 20 C-8.763125 19.0925 -9.52625 18.185 -10.3125 17.25 C-16.35455786 12.19153296 -21.45181802 10.35073141 -29.390625 10.6796875 C-35.60515085 11.44254846 -40.81739003 14.37954106 -45 19 Z " fill="#FAAA05" transform="translate(495,196)"/>
<path d="M0 0 C12.0965625 -0.0928125 12.0965625 -0.0928125 24.4375 -0.1875 C26.96591553 -0.21481201 29.49433105 -0.24212402 32.09936523 -0.27026367 C34.12743656 -0.27903431 36.15551322 -0.28667688 38.18359375 -0.29296875 C39.21713989 -0.30831665 40.25068604 -0.32366455 41.31555176 -0.33947754 C50.65349491 -0.3428161 58.22169862 1.81446575 66 7 C72.14396616 13.48529761 73.58317051 19.59288335 73.5625 28.25 C73.5622583 29.18424805 73.5620166 30.11849609 73.56176758 31.08105469 C73.38686355 38.10421871 72.26441643 43.92771556 67 49 C65.515 49.495 65.515 49.495 64 50 C64 50.66 64 51.32 64 52 C62.84239068 52.66193086 61.6731617 53.30354146 60.5 53.9375 C59.52546875 54.47697266 59.52546875 54.47697266 58.53125 55.02734375 C50.7082176 58.03341639 41.726872 57.11684417 33.5 57.0625 C32.200625 57.05798828 30.90125 57.05347656 29.5625 57.04882812 C26.37497999 57.0371093 23.18748387 57.01917604 20 57 C20 65.58 20 74.16 20 83 C13.4 83 6.8 83 0 83 C0 55.61 0 28.22 0 0 Z M20 18 C20 24.93 20 31.86 20 39 C24.04207139 39.08108167 28.08250908 39.14054629 32.125 39.1875 C33.26710938 39.21263672 34.40921875 39.23777344 35.5859375 39.26367188 C43.72713685 39.39618852 43.72713685 39.39618852 51 36 C52.93549813 33.53663875 53.03037929 31.76564549 53.4375 28.625 C52.85406422 23.79081782 51.44960332 22.36937999 48 19 C44.82212459 17.9407082 42.57411057 17.88541061 39.23828125 17.90234375 C37.56088867 17.90717773 37.56088867 17.90717773 35.84960938 17.91210938 C34.68236328 17.92048828 33.51511719 17.92886719 32.3125 17.9375 C31.13365234 17.94201172 29.95480469 17.94652344 28.74023438 17.95117188 C25.82680133 17.96296715 22.91339433 17.98090273 20 18 Z " fill="#FBAA03" transform="translate(69,190)"/>
<path d="M0 0 C24.09 0 48.18 0 73 0 C73 5.94 73 11.88 73 18 C64.42 18 55.84 18 47 18 C47 39.45 47 60.9 47 83 C42.38 83 37.76 83 33 83 C33 84.65 33 86.3 33 88 C32 90.25 32 90.25 30 92 C24.36085265 93.31580105 20.50600867 93.09228329 15 91 C14.34 90.34 13.68 89.68 13 89 C13.375 86.875 13.375 86.875 14 85 C15.8125 84.375 15.8125 84.375 18 84 C19.485 84.99 19.485 84.99 21 86 C22.32 86 23.64 86 25 86 C25.33 85.34 25.66 84.68 26 84 C25.07767578 83.81824219 25.07767578 83.81824219 24.13671875 83.6328125 C23.32847656 83.46523438 22.52023437 83.29765625 21.6875 83.125 C20.88699219 82.96257812 20.08648437 82.80015625 19.26171875 82.6328125 C17 82 17 82 14 80 C13 76.75 13 76.75 13 73 C14.9375 69.5625 14.9375 69.5625 18 67 C20.64 67 23.28 67 26 67 C26 50.83 26 34.66 26 18 C17.42 18 8.84 18 0 18 C0 12.06 0 6.12 0 0 Z M22 73 C21.67 73.99 21.34 74.98 21 76 C23.475 76.495 23.475 76.495 26 77 C26 76.01 26 75.02 26 74 C24.68 73.67 23.36 73.34 22 73 Z " fill="#FCAA03" transform="translate(348,190)"/>
<path d="M0 0 C3.9036874 3.46994436 6.36588975 7.55224006 9 12 C9.66 10.68 10.32 9.36 11 8 C24.93545986 7.1409648 24.93545986 7.1409648 28.875 10 C31.78789129 14.11231711 31.64003318 16.03974283 31 21 C30.34 21.99 29.68 22.98 29 24 C28.34 24 27.68 24 27 24 C27.66 24.928125 28.32 25.85625 29 26.8125 C31 30 31 30 31 33 C27.6875 33.25 27.6875 33.25 24 33 C22.0625 31.1875 22.0625 31.1875 21 29 C21 28.01 21 27.02 21 26 C19.35 26 17.7 26 16 26 C16.185625 26.598125 16.37125 27.19625 16.5625 27.8125 C17 30 17 30 16 33 C14.02 33 12.04 33 10 33 C10 30.03 10 27.06 10 24 C8.68 24.33 7.36 24.66 6 25 C1.55045528 26.00132385 -2.4517307 26.16539161 -7 26 C-7 28.31 -7 30.62 -7 33 C-8.99954746 33.04254356 -11.00041636 33.04080783 -13 33 C-15.2796298 30.7203702 -14.3021671 24.22505328 -14.34179688 20.96484375 C-14.49190963 16.71281281 -14.85968022 13.79566637 -17.16796875 10.1640625 C-18.07482422 8.59785156 -18.07482422 8.59785156 -19 7 C-18.25 4.5625 -18.25 4.5625 -17 3 C-14.54159395 2.97308315 -12.08348118 2.95320198 -9.625 2.9375 C-8.92632812 2.92912109 -8.22765625 2.92074219 -7.5078125 2.91210938 C-2.2265625 2.88671875 -2.2265625 2.88671875 0 4 C0 2.68 0 1.36 0 0 Z M16 15 C16.33 16.65 16.66 18.3 17 20 C18.98 20 20.96 20 23 20 C23.33 18.35 23.66 16.7 24 15 C21.36 15 18.72 15 16 15 Z " fill="#EDAF28" transform="translate(223,249)"/>
<path d="M0 0 C24.09 0 48.18 0 73 0 C73 5.94 73 11.88 73 18 C64.42 18 55.84 18 47 18 C47 39.45 47 60.9 47 83 C42.38 83 37.76 83 33 83 C33 84.65 33 86.3 33 88 C32 90.25 32 90.25 30 92 C24.36085265 93.31580105 20.50600867 93.09228329 15 91 C14.34 90.34 13.68 89.68 13 89 C13.375 86.875 13.375 86.875 14 85 C15.8125 84.375 15.8125 84.375 18 84 C19.485 84.99 19.485 84.99 21 86 C22.32 86 23.64 86 25 86 C25.33 85.34 25.66 84.68 26 84 C25.07767578 83.81824219 25.07767578 83.81824219 24.13671875 83.6328125 C23.32847656 83.46523438 22.52023437 83.29765625 21.6875 83.125 C20.88699219 82.96257812 20.08648437 82.80015625 19.26171875 82.6328125 C17 82 17 82 14 80 C13 76.75 13 76.75 13 73 C14.9375 69.5625 14.9375 69.5625 18 67 C20.64 67 23.28 67 26 67 C26 50.83 26 34.66 26 18 C17.42 18 8.84 18 0 18 C0 12.06 0 6.12 0 0 Z M2 2 C1.97305149 3.95825873 1.95362782 5.91662226 1.9375 7.875 C1.92589844 8.96554688 1.91429687 10.05609375 1.90234375 11.1796875 C1.80255697 13.95177546 1.80255697 13.95177546 3 16 C11.58 16 20.16 16 29 16 C28.87955048 23.18596693 28.75665421 30.37180957 28.62768555 37.55761719 C28.58460823 39.99769686 28.54291646 42.43780143 28.50268555 44.87792969 C28.44431751 48.40307084 28.3808216 51.92808976 28.31640625 55.453125 C28.29969376 56.5286261 28.28298126 57.6041272 28.26576233 58.71221924 C28.14352841 65.08689875 27.7614255 71.37488606 27.10997009 77.71844482 C27.0555349 78.84781464 27.0555349 78.84781464 27 80 C27.495 80.495 27.495 80.495 28 81 C33.61 81 39.22 81 45 81 C45.33 59.88 45.66 38.76 46 17 C54.58 17 63.16 17 72 17 C72.020625 14.73125 72.04125 12.4625 72.0625 10.125 C72.07410156 8.84882813 72.08570313 7.57265625 72.09765625 6.2578125 C72.23176569 3.11335348 72.23176569 3.11335348 71 1 C36.48747916 0.82906795 36.48747916 0.82906795 2 2 Z M22 73 C21.67 73.99 21.34 74.98 21 76 C23.475 76.495 23.475 76.495 26 77 C26 76.01 26 75.02 26 74 C24.68 73.67 23.36 73.34 22 73 Z " fill="#C79532" transform="translate(348,190)"/>
<path d="M0 0 C1.48413159 3.41453114 2.96143315 6.83197571 4.4375 10.25 C4.85837891 11.21808594 5.27925781 12.18617187 5.71289062 13.18359375 C6.11572266 14.11816406 6.51855469 15.05273438 6.93359375 16.015625 C7.30540771 16.87446289 7.67722168 17.73330078 8.06030273 18.61816406 C8.89737682 20.73988264 9.51149995 22.77586153 10 25 C6.99785011 27.35933662 3.90426153 29.28031056 0.5625 31.125 C-0.36433594 31.64320313 -1.29117188 32.16140625 -2.24609375 32.6953125 C-4.87778298 33.94209861 -7.13273 34.57329194 -10 35 C-10.74765625 34.04738281 -11.4953125 33.09476563 -12.265625 32.11328125 C-13.26040473 30.8463448 -14.25519707 29.57941824 -15.25 28.3125 C-15.98669922 27.37374023 -15.98669922 27.37374023 -16.73828125 26.41601562 C-17.22167969 25.80048828 -17.70507812 25.18496094 -18.203125 24.55078125 C-18.67556641 23.94186035 -19.14800781 23.33293945 -19.63476562 22.70556641 C-20.83618793 21.20464791 -22.12342928 19.77328771 -23.421875 18.35546875 C-25 16 -25 16 -25.1015625 13.41015625 C-23.55743796 10.03169937 -21.62396196 9.17484814 -18.375 7.4375 C-17.28832031 6.84710938 -16.20164063 6.25671875 -15.08203125 5.6484375 C-14.06496094 5.10445313 -13.04789063 4.56046875 -12 4 C-10.68453923 3.19230237 -9.37133776 2.38088636 -8.0625 1.5625 C-4.90614008 -0.04788772 -3.43818861 -0.14543945 0 0 Z " fill="#FAA904" transform="translate(242,109)"/>
<path d="M0 0 C6.2625684 -0.8397305 10.20919941 1.99947181 15.3125 5.1875 C16.54709961 5.91163086 16.54709961 5.91163086 17.80664062 6.65039062 C18.58845703 7.13056641 19.37027344 7.61074219 20.17578125 8.10546875 C20.88645752 8.54012451 21.59713379 8.97478027 22.3293457 9.42260742 C24.55989806 11.52864261 24.84951125 12.96592423 25 16 C24.16723633 17.7734375 24.16723633 17.7734375 22.83203125 19.375 C22.35056641 19.96796875 21.86910156 20.5609375 21.37304688 21.171875 C20.85806641 21.77515625 20.34308594 22.3784375 19.8125 23 C19.31685547 23.60328125 18.82121094 24.2065625 18.31054688 24.828125 C17.33893706 26.00894538 16.36138676 27.18490737 15.37744141 28.35546875 C13.54730622 30.54047241 11.77164731 32.7674707 10 35 C5.2128572 34.42334609 1.74871176 32.35917004 -2.3125 29.9375 C-2.95767578 29.56044922 -3.60285156 29.18339844 -4.26757812 28.79492188 C-5.84878152 27.86962507 -7.4249146 26.93567319 -9 26 C-8.46804888 21.27154561 -7.53552189 17.35367413 -5.625 13 C-5.18027344 11.97390625 -4.73554688 10.9478125 -4.27734375 9.890625 C-3.85582031 8.93671875 -3.43429687 7.9828125 -3 7 C-2.39417831 5.58404029 -1.78965849 4.16752141 -1.1875 2.75 C-0.5996875 1.38875 -0.5996875 1.38875 0 0 Z " fill="#FAAA06" transform="translate(335,109)"/>
<path d="M0 0 C1.12591553 0.00523682 2.25183105 0.01047363 3.41186523 0.01586914 C4.62680664 0.0190918 5.84174805 0.02231445 7.09350586 0.02563477 C8.37290039 0.03401367 9.65229492 0.04239258 10.97045898 0.05102539 C12.2537207 0.05553711 13.53698242 0.06004883 14.85913086 0.06469727 C18.04211921 0.07652994 21.22501661 0.09301471 24.40795898 0.11352539 C25.32728587 3.83633584 25.39192191 6.80519706 24.88452148 10.59790039 C24.75045898 11.6149707 24.61639648 12.63204102 24.47827148 13.67993164 C24.2578418 15.25581055 24.2578418 15.25581055 24.03295898 16.86352539 C23.89374023 17.92958008 23.75452148 18.99563477 23.61108398 20.09399414 C22.54696165 27.97452272 22.54696165 27.97452272 21.40795898 29.11352539 C19.84623154 29.20038142 18.28066554 29.22054759 16.71655273 29.21118164 C15.77231445 29.20795898 14.82807617 29.20473633 13.85522461 29.20141602 C12.36539062 29.18884766 12.36539062 29.18884766 10.84545898 29.17602539 C9.84836914 29.17151367 8.8512793 29.16700195 7.82397461 29.16235352 C5.3519105 29.15052546 2.87996381 29.13404388 0.40795898 29.11352539 C-3.53070218 9.59361976 -3.53070218 9.59361976 -3.59204102 1.11352539 C-2.59204102 0.11352539 -2.59204102 0.11352539 0 0 Z " fill="#FAAA05" transform="translate(277.592041015625,98.886474609375)"/>
<path d="M0 0 C3 1 3 1 4.07495117 2.62646484 C4.55411987 3.65827881 4.55411987 3.65827881 5.04296875 4.7109375 C5.39423828 5.46117187 5.74550781 6.21140625 6.10742188 6.984375 C6.64206055 8.16773438 6.64206055 8.16773438 7.1875 9.375 C7.55552734 10.15617188 7.92355469 10.93734375 8.30273438 11.7421875 C11 17.58709705 11 17.58709705 11 21 C7.83816984 22.15948829 4.66980741 23.30001995 1.5 24.4375 C0.1696875 24.92573242 0.1696875 24.92573242 -1.1875 25.42382812 C-6.50927477 27.32166692 -11.36551846 28.53265398 -17 29 C-18.98 25.04 -20.96 21.08 -23 17 C-21.68 16.34 -20.36 15.68 -19 15 C-19 14.34 -19 13.68 -19 13 C-13.70588235 9 -13.70588235 9 -10 9 C-10 8.34 -10 7.68 -10 7 C-8.06640625 5.52734375 -8.06640625 5.52734375 -5.5625 3.9375 C-2.6281857 2.16321108 -2.6281857 2.16321108 0 0 Z " fill="#F7AA08" transform="translate(391,154)"/>
<path d="M0 0 C3.71070609 0.43722379 6.09968026 1.47037644 9.1015625 3.65234375 C9.83890625 4.18150391 10.57625 4.71066406 11.3359375 5.25585938 C12.09132812 5.81080078 12.84671875 6.36574219 13.625 6.9375 C15.13795089 8.03004478 16.65096903 9.12249644 18.1640625 10.21484375 C18.82873535 10.70073975 19.4934082 11.18663574 20.17822266 11.68725586 C21.76030647 12.82728061 23.37747086 13.91831391 25 15 C24.35300491 17.90821025 23.45685582 20.49201533 22.1875 23.1875 C21.87167969 23.88230469 21.55585938 24.57710937 21.23046875 25.29296875 C20 27 20 27 18.2734375 27.70556641 C15.26400997 28.0953183 13.26741937 27.38033066 10.39453125 26.41796875 C9.32912109 26.06283203 8.26371094 25.70769531 7.16601562 25.34179688 C6.05935547 24.96087891 4.95269531 24.57996094 3.8125 24.1875 C2.69423828 23.81818359 1.57597656 23.44886719 0.42382812 23.06835938 C-7.86791537 20.26416925 -7.86791537 20.26416925 -9 18 C-8.39501953 16.22827148 -8.39501953 16.22827148 -7.3828125 14.12109375 C-6.84333984 12.98704102 -6.84333984 12.98704102 -6.29296875 11.83007812 C-5.90753906 11.04052734 -5.52210938 10.25097656 -5.125 9.4375 C-4.74730469 8.64408203 -4.36960938 7.85066406 -3.98046875 7.03320312 C-1.16333128 1.16333128 -1.16333128 1.16333128 0 0 Z " fill="#FAAA04" transform="translate(184,155)"/>
<path d="M0 0 C0.33 0 0.66 0 1 0 C1.75744039 20.68233065 1.75744039 20.68233065 -3 28 C-3.33 28.66 -3.66 29.32 -4 30 C-4.66 30 -5.32 30 -6 30 C-6.38285156 30.89332031 -6.38285156 30.89332031 -6.7734375 31.8046875 C-8.13143064 34.23523573 -9.4185426 35.44598262 -11.625 37.125 C-12.25664062 37.62257812 -12.88828125 38.12015625 -13.5390625 38.6328125 C-16.92525967 40.51403315 -20.2193414 41.16777955 -24 42 C-23.99476318 42.63091553 -23.98952637 43.26183105 -23.98413086 43.91186523 C-23.96342174 46.75373347 -23.95035934 49.59558588 -23.9375 52.4375 C-23.92912109 53.43072266 -23.92074219 54.42394531 -23.91210938 55.44726562 C-23.90888672 56.39150391 -23.90566406 57.33574219 -23.90234375 58.30859375 C-23.89710693 59.18314209 -23.89187012 60.05769043 -23.88647461 60.95874023 C-24 63 -24 63 -25 64 C-27.5 64.125 -27.5 64.125 -30 64 C-32.67739207 61.32260793 -31.43083619 53.90325467 -31.5 50.3125 C-31.55414063 49.12720703 -31.60828125 47.94191406 -31.6640625 46.72070312 C-31.79991729 38.06966437 -31.79991729 38.06966437 -29.49194336 34.98339844 C-27.62109375 33.44140625 -27.62109375 33.44140625 -25.69677734 32.14428711 C-23.48991355 30.65600357 -22.60511624 29.04386967 -21.5625 26.625 C-21.046875 25.42875 -20.53125 24.2325 -20 23 C-19.67 24.32 -19.34 25.64 -19 27 C-14.05 27 -9.1 27 -4 27 C-4 25.02 -4 23.04 -4 21 C-3.34 21 -2.68 21 -2 21 C-2.020625 20.030625 -2.04125 19.06125 -2.0625 18.0625 C-2 15 -2 15 -1 14 C-0.76472227 11.65012738 -0.58613583 9.29443961 -0.4375 6.9375 C-0.35371094 5.64714844 -0.26992188 4.35679687 -0.18359375 3.02734375 C-0.09271484 1.52880859 -0.09271484 1.52880859 0 0 Z " fill="#8C6A24" transform="translate(337,218)"/>
<path d="M0 0 C12.89098663 -0.68853935 12.89098663 -0.68853935 16.625 1.75 C17.40875 2.4925 18.1925 3.235 19 4 C19.61875 4.556875 20.2375 5.11375 20.875 5.6875 C22.67283083 9.38304115 22.53311415 12.97282689 22 17 C20.37155695 20.74541902 18.5171914 22.94878788 15 25 C12.34392531 25.23964584 9.95465412 25.33044618 7.3125 25.25 C6.62349609 25.24484375 5.93449219 25.2396875 5.22460938 25.234375 C0.15461101 25.15461101 0.15461101 25.15461101 -1 24 C-1.0991918 22.38916255 -1.1307982 20.77404356 -1.1328125 19.16015625 C-1.13410156 18.17982422 -1.13539063 17.19949219 -1.13671875 16.18945312 C-1.13285156 15.15755859 -1.12898438 14.12566406 -1.125 13.0625 C-1.12886719 12.03447266 -1.13273437 11.00644531 -1.13671875 9.94726562 C-1.13542969 8.96564453 -1.13414062 7.98402344 -1.1328125 6.97265625 C-1.13168457 6.06781494 -1.13055664 5.16297363 -1.12939453 4.23071289 C-1 2 -1 2 0 0 Z M6 7 C6 10.96 6 14.92 6 19 C11.76887492 19.5547002 11.76887492 19.5547002 15 17 C15.47558206 15.098006 15.47558206 15.098006 15.375 13 C15.38273437 12.29875 15.39046875 11.5975 15.3984375 10.875 C15.140914 8.58941406 15.140914 8.58941406 12 7 C10.02 7 8.04 7 6 7 Z " fill="#D99E1E" transform="translate(281,257)"/>
<path d="M0 0 C5.94 0 11.88 0 18 0 C18 2.31 18 4.62 18 7 C13.71 7 9.42 7 5 7 C5 7.66 5 8.32 5 9 C5.62648438 8.98839844 6.25296875 8.97679687 6.8984375 8.96484375 C7.71570313 8.95582031 8.53296875 8.94679688 9.375 8.9375 C10.18710937 8.92589844 10.99921875 8.91429687 11.8359375 8.90234375 C14 9 14 9 16 10 C16 11.98 16 13.96 16 16 C12.37 16 8.74 16 5 16 C5 16.99 5 17.98 5 19 C9.29 19 13.58 19 18 19 C18 20.98 18 22.96 18 25 C14.85418577 25.02888514 11.70840531 25.04675923 8.5625 25.0625 C7.66466797 25.07087891 6.76683594 25.07925781 5.84179688 25.08789062 C4.56079102 25.09272461 4.56079102 25.09272461 3.25390625 25.09765625 C2.46314697 25.10289307 1.6723877 25.10812988 0.85766602 25.11352539 C-1 25 -1 25 -2 24 C-2.25134544 20.73673357 -2.18522634 17.45930284 -2.1875 14.1875 C-2.19974609 13.27162109 -2.21199219 12.35574219 -2.22460938 11.41210938 C-2.22654297 10.52716797 -2.22847656 9.64222656 -2.23046875 8.73046875 C-2.23457764 7.91989014 -2.23868652 7.10931152 -2.24291992 6.27416992 C-2 4 -2 4 0 0 Z " fill="#D7A74A" transform="translate(259,257)"/>
<path d="M0 0 C12.0965625 -0.0928125 12.0965625 -0.0928125 24.4375 -0.1875 C26.96591553 -0.21481201 29.49433105 -0.24212402 32.09936523 -0.27026367 C34.12743656 -0.27903431 36.15551322 -0.28667688 38.18359375 -0.29296875 C39.21713989 -0.30831665 40.25068604 -0.32366455 41.31555176 -0.33947754 C47.76269303 -0.34178256 53.03461468 0.51930121 59 3 C58.67 3.66 58.34 4.32 58 5 C57.40619537 4.86042877 56.81239075 4.72085754 56.20059204 4.57705688 C49.73462752 3.15754546 43.56880702 2.66561847 36.9609375 2.5859375 C36.06673096 2.56829346 35.17252441 2.55064941 34.2512207 2.5324707 C30.95931899 2.47012726 27.66713559 2.42344415 24.375 2.375 C16.99125 2.25125 9.6075 2.1275 2 2 C2 28.07 2 54.14 2 81 C7.28 81 12.56 81 18 81 C17.98839844 79.20691406 17.97679688 77.41382813 17.96484375 75.56640625 C17.95546771 73.23177187 17.94636731 70.89713637 17.9375 68.5625 C17.92912109 67.37849609 17.92074219 66.19449219 17.91210938 64.97460938 C17.90727539 63.28754883 17.90727539 63.28754883 17.90234375 61.56640625 C17.89710693 60.52427979 17.89187012 59.48215332 17.88647461 58.40844727 C18 56 18 56 19 55 C21.59419854 54.89931193 24.15603802 54.8612995 26.75 54.875 C27.46671875 54.87113281 28.1834375 54.86726563 28.921875 54.86328125 C32.740112 54.87030007 36.28937214 55.07964742 40 56 C40 56.33 40 56.66 40 57 C33.4 57 26.8 57 20 57 C20 65.58 20 74.16 20 83 C13.4 83 6.8 83 0 83 C0 55.61 0 28.22 0 0 Z " fill="#DCAC49" transform="translate(69,190)"/>
<path d="M0 0 C8.00912188 0.08164242 8.00912188 0.08164242 11.1875 2.375 C14.10039129 6.48731711 13.95253318 8.41474283 13.3125 13.375 C12.3225 14.86 12.3225 14.86 11.3125 16.375 C10.6525 16.375 9.9925 16.375 9.3125 16.375 C9.9725 17.303125 10.6325 18.23125 11.3125 19.1875 C13.3125 22.375 13.3125 22.375 13.3125 25.375 C10 25.625 10 25.625 6.3125 25.375 C4.375 23.5625 4.375 23.5625 3.3125 21.375 C3.3125 20.385 3.3125 19.395 3.3125 18.375 C1.6625 18.375 0.0125 18.375 -1.6875 18.375 C-1.501875 18.99375 -1.31625 19.6125 -1.125 20.25 C-0.6875 22.375 -0.6875 22.375 -1.6875 24.375 C-3.3375 24.375 -4.9875 24.375 -6.6875 24.375 C-6.8833691 20.56288097 -7.06779565 16.75029466 -7.25 12.9375 C-7.30607422 11.84888672 -7.36214844 10.76027344 -7.41992188 9.63867188 C-7.46826172 8.60419922 -7.51660156 7.56972656 -7.56640625 6.50390625 C-7.6135376 5.54556885 -7.66066895 4.58723145 -7.70922852 3.59985352 C-7.66340783 -1.09187574 -3.88358234 0.10551007 0 0 Z M-1.6875 7.375 C-1.3575 9.025 -1.0275 10.675 -0.6875 12.375 C1.2925 12.375 3.2725 12.375 5.3125 12.375 C5.6425 10.725 5.9725 9.075 6.3125 7.375 C3.6725 7.375 1.0325 7.375 -1.6875 7.375 Z " fill="#F1B223" transform="translate(240.6875,256.625)"/>
<path d="M0 0 C3.0625 2 3.0625 2 5 4 C4.67 5.32 4.34 6.64 4 8 C2.35 8.33 0.7 8.66 -1 9 C-1 8.34 -1 7.68 -1 7 C-4.43230448 7.26393501 -4.43230448 7.26393501 -8 8 C-10.29544841 10.82398066 -10.29544841 10.82398066 -9.9375 14.0625 C-9.29147729 17.15798267 -9.29147729 17.15798267 -6.6875 18.5 C-3.49842166 19.0933169 -2.77294994 18.47312965 0 17 C2.75 17.375 2.75 17.375 5 18 C4.25 22.75 4.25 22.75 2 25 C-3.37794962 26.3337315 -7.86813609 26.23696632 -13 24 C-13 23.34 -13 22.68 -13 22 C-13.99 21.67 -14.98 21.34 -16 21 C-18.41297991 17.13923214 -18.21500734 13.50942064 -17.61328125 9.15234375 C-15.30622281 1.05559724 -7.37660311 -1.11101203 0 0 Z " fill="#E9B22E" transform="translate(333,257)"/>
<path d="M0 0 C1.95532227 -0.35644531 1.95532227 -0.35644531 4.31640625 -0.328125 C5.16267578 -0.32296875 6.00894531 -0.3178125 6.88085938 -0.3125 C7.76580078 -0.291875 8.65074219 -0.27125 9.5625 -0.25 C10.89571289 -0.24226563 10.89571289 -0.24226563 12.25585938 -0.234375 C18.84605454 -0.15394546 18.84605454 -0.15394546 20 1 C20.125 3.5 20.125 3.5 20 6 C19 7 19 7 15.9375 7.0625 C14.968125 7.041875 13.99875 7.02125 13 7 C13.01160156 8.21558594 13.02320313 9.43117188 13.03515625 10.68359375 C13.04453278 12.26822764 13.05363313 13.85286318 13.0625 15.4375 C13.07087891 16.23994141 13.07925781 17.04238281 13.08789062 17.86914062 C13.0965143 19.91295221 13.0522815 21.95683902 13 24 C12 25 12 25 9.5 25.125 C7 25 7 25 6 24 C5.92674832 21.13732433 5.90761795 18.299281 5.9375 15.4375 C5.94201172 14.63119141 5.94652344 13.82488281 5.95117188 12.99414062 C5.96299482 10.99606244 5.98093086 8.99802217 6 7 C3.69 7 1.38 7 -1 7 C-1.625 5.1875 -1.625 5.1875 -2 3 C-1.34 2.01 -0.68 1.02 0 0 Z " fill="#D4A121" transform="translate(340,257)"/>
<path d="M0 0 C3.84762566 3.4201117 6.60634022 7.46774256 9 12 C9 12.66 9 13.32 9 14 C9.66 14 10.32 14 11 14 C11 19.94 11 25.88 11 32 C12.65 32 14.3 32 16 32 C16 32.33 16 32.66 16 33 C14.02 33 12.04 33 10 33 C10 30.03 10 27.06 10 24 C7.69 24 5.38 24 3 24 C3.99 23.67 4.98 23.34 6 23 C5.93967927 21.5613506 5.85079867 20.12388098 5.75 18.6875 C5.70359375 17.88699219 5.6571875 17.08648437 5.609375 16.26171875 C5.16209888 13.90176382 5.16209888 13.90176382 3.375 12.25 C0.27608587 10.61899256 -2.26405417 10.48679729 -5.75 10.3125 C-6.92046875 10.24675781 -8.0909375 10.18101562 -9.296875 10.11328125 C-10.18890625 10.07589844 -11.0809375 10.03851563 -12 10 C-12 10.66 -12 11.32 -12 12 C-14.375 11.3125 -14.375 11.3125 -17 10 C-18.3125 7.375 -18.3125 7.375 -19 5 C-17 3 -17 3 -13.59375 2.76953125 C-12.22909733 2.77352146 -10.8644434 2.78827157 -9.5 2.8125 C-8.81035156 2.81314453 -8.12070313 2.81378906 -7.41015625 2.81445312 C-2.28111049 2.85944475 -2.28111049 2.85944475 0 4 C0 2.68 0 1.36 0 0 Z " fill="#905D03" transform="translate(223,249)"/>
<path d="M0 0 C0 0.66 0 1.32 0 2 C2.475 2.495 2.475 2.495 5 3 C4.67 4.65 4.34 6.3 4 8 C4.66 8 5.32 8 6 8 C6 9.32 6 10.64 6 12 C5.34 12 4.68 12 4 12 C4.061875 12.928125 4.12375 13.85625 4.1875 14.8125 C4 18 4 18 2.8125 19.75 C-1.82452555 22.94794865 -5.93264491 23.23958052 -11.48828125 23.1953125 C-12.19147995 23.1924826 -12.89467865 23.18965271 -13.6191864 23.18673706 C-15.85046892 23.17560151 -18.08134017 23.15050997 -20.3125 23.125 C-21.83137438 23.1149616 -23.3502551 23.10583726 -24.86914062 23.09765625 C-28.57955921 23.07568413 -32.28973942 23.04120047 -36 23 C-36.02900455 19.3958502 -36.04680018 15.79173038 -36.0625 12.1875 C-36.07087891 11.16333984 -36.07925781 10.13917969 -36.08789062 9.08398438 C-36.09111328 8.10107422 -36.09433594 7.11816406 -36.09765625 6.10546875 C-36.10289307 5.19949951 -36.10812988 4.29353027 -36.11352539 3.36010742 C-36 1 -36 1 -35 -2 C-31.3338606 -2.19891332 -27.66709047 -2.38204172 -24 -2.5625 C-22.97003906 -2.61857422 -21.94007813 -2.67464844 -20.87890625 -2.73242188 C-5.54397189 -3.46498243 -5.54397189 -3.46498243 0 0 Z M-35 1 C-35 7.6 -35 14.2 -35 21 C-30.81846569 21.06905286 -26.6389266 21.12872548 -22.45727539 21.16479492 C-21.03630859 21.1798376 -19.61538787 21.20027704 -18.19458008 21.22631836 C-16.14653114 21.26290347 -14.0990985 21.27977097 -12.05078125 21.29296875 C-10.82012939 21.3086792 -9.58947754 21.32438965 -8.3215332 21.34057617 C-3.66685279 20.86330464 -1.09445782 19.31334939 1.875 15.75 C3.38321549 12.06325103 2.97410754 9.82685105 2 6 C0.17375749 2.84558112 -0.48585498 2.17138167 -4 1 C-6.35680213 0.91602843 -8.71594081 0.89271813 -11.07421875 0.90234375 C-11.7580513 0.9037587 -12.44188385 0.90517365 -13.1464386 0.90663147 C-15.32683722 0.91222124 -17.50713251 0.92477178 -19.6875 0.9375 C-21.16731622 0.94251633 -22.64713406 0.947079 -24.12695312 0.95117188 C-27.75137376 0.9613357 -31.37557144 0.9809129 -35 1 Z " fill="#BB8A21" transform="translate(209,207)"/>
<path d="M0 0 C0.99 0 1.98 0 3 0 C3 0.66 3 1.32 3 2 C4.32 2.33 5.64 2.66 7 3 C6.34 3.66 5.68 4.32 5 5 C4.01 6.485 4.01 6.485 3 8 C4.65 8.33 6.3 8.66 8 9 C7.01 9.66 6.02 10.32 5 11 C5 11.66 5 12.32 5 13 C8.3 13.33 11.6 13.66 15 14 C15 19 15 19 14 21.25 C11.00267055 23.87266327 7.84027365 24.07736815 4 24 C-2.32653061 22.67346939 -2.32653061 22.67346939 -5 20 C-4.625 17.875 -4.625 17.875 -4 16 C-2.1875 15.375 -2.1875 15.375 0 15 C0.99 15.66 1.98 16.32 3 17 C4.32 17 5.64 17 7 17 C7.33 16.34 7.66 15.68 8 15 C5.69 14.67 3.38 14.34 1 14 C1.33 13.34 1.66 12.68 2 12 C0.68 11.34 -0.64 10.68 -2 10 C-2.25 3.375 -2.25 3.375 0 0 Z " fill="#CC8B15" transform="translate(366,259)"/>
<path d="M0 0 C4.39570794 -0.0872253 8.79119271 -0.14046869 13.1875 -0.1875 C14.43337891 -0.21263672 15.67925781 -0.23777344 16.96289062 -0.26367188 C18.16494141 -0.27333984 19.36699219 -0.28300781 20.60546875 -0.29296875 C21.71043701 -0.3086792 22.81540527 -0.32438965 23.95385742 -0.34057617 C28.29118333 0.14436169 30.83336983 2.12502737 34.25 4.6875 C36.72762714 7.96150729 37.07238795 10.94627473 37 15 C36.3125 17.9375 36.3125 17.9375 35 20 C32.875 20.8125 32.875 20.8125 31 21 C31.33 20.319375 31.66 19.63875 32 18.9375 C33.21956366 15.35503176 33.40345105 12.76554318 33 9 C30.86320715 5.61060444 29.8225233 4.27417443 26 3 C24.08234406 2.85060226 22.16053478 2.75189717 20.23828125 2.68359375 C18.56088867 2.62075195 18.56088867 2.62075195 16.84960938 2.55664062 C15.68236328 2.51732422 14.51511719 2.47800781 13.3125 2.4375 C11.54422852 2.37272461 11.54422852 2.37272461 9.74023438 2.30664062 C6.82696374 2.20048906 3.9134974 2.09973371 1 2 C1 8.93 1 15.86 1 23 C9.25 23 17.5 23 26 23 C26 23.66 26 24.32 26 25 C21.68751391 25.02886537 17.37505238 25.04675255 13.0625 25.0625 C11.83080078 25.07087891 10.59910156 25.07925781 9.33007812 25.08789062 C8.16025391 25.09111328 6.99042969 25.09433594 5.78515625 25.09765625 C4.15912476 25.10551147 4.15912476 25.10551147 2.50024414 25.11352539 C0 25 0 25 -1 24 C-1.0991918 22.38916255 -1.1307982 20.77404356 -1.1328125 19.16015625 C-1.13410156 18.17982422 -1.13539062 17.19949219 -1.13671875 16.18945312 C-1.13285156 15.15755859 -1.12898438 14.12566406 -1.125 13.0625 C-1.12886719 12.03447266 -1.13273437 11.00644531 -1.13671875 9.94726562 C-1.13542969 8.96564453 -1.13414063 7.98402344 -1.1328125 6.97265625 C-1.13168457 6.06781494 -1.13055664 5.16297363 -1.12939453 4.23071289 C-1 2 -1 2 0 0 Z " fill="#CD9C34" transform="translate(88,206)"/>
<path d="M0 0 C1.12591553 0.00523682 2.25183105 0.01047363 3.41186523 0.01586914 C4.62680664 0.0190918 5.84174805 0.02231445 7.09350586 0.02563477 C8.37290039 0.03401367 9.65229492 0.04239258 10.97045898 0.05102539 C12.2537207 0.05553711 13.53698242 0.06004883 14.85913086 0.06469727 C18.04211921 0.07652994 21.22501661 0.09301471 24.40795898 0.11352539 C25.18445554 3.71683111 25.4644465 6.68466481 25.09545898 10.36352539 C24.97750977 11.67063477 24.97750977 11.67063477 24.85717773 13.00415039 C24.70893555 13.70024414 24.56069336 14.39633789 24.40795898 15.11352539 C23.41795898 15.60852539 23.41795898 15.60852539 22.40795898 16.11352539 C22.31708008 14.84895508 22.31708008 14.84895508 22.22436523 13.55883789 C22.09868164 11.9152832 22.09868164 11.9152832 21.97045898 10.23852539 C21.88924805 9.14797852 21.80803711 8.05743164 21.72436523 6.93383789 C21.57794195 4.16623568 21.57794195 4.16623568 20.40795898 2.11352539 C13.47795898 2.11352539 6.54795898 2.11352539 -0.59204102 2.11352539 C-0.26204102 6.73352539 0.06795898 11.35352539 0.40795898 16.11352539 C0.73795898 16.11352539 1.06795898 16.11352539 1.40795898 16.11352539 C1.40795898 19.08352539 1.40795898 22.05352539 1.40795898 25.11352539 C3.38795898 24.78352539 5.36795898 24.45352539 7.40795898 24.11352539 C7.40795898 24.77352539 7.40795898 25.43352539 7.40795898 26.11352539 C12.02795898 26.11352539 16.64795898 26.11352539 21.40795898 26.11352539 C21.40795898 27.10352539 21.40795898 28.09352539 21.40795898 29.11352539 C14.47795898 29.11352539 7.54795898 29.11352539 0.40795898 29.11352539 C-3.53328949 9.23592441 -3.53328949 9.23592441 -3.59204102 1.11352539 C-2.59204102 0.11352539 -2.59204102 0.11352539 0 0 Z " fill="#D4A335" transform="translate(277.592041015625,98.886474609375)"/>
<path d="M0 0 C7.63131201 -0.10199058 15.26244618 -0.17171246 22.89428711 -0.21972656 C25.48680185 -0.23975721 28.07927188 -0.26698967 30.67163086 -0.30175781 C34.41271033 -0.35065141 38.1531889 -0.37305539 41.89453125 -0.390625 C43.61395683 -0.42159271 43.61395683 -0.42159271 45.36811829 -0.45318604 C52.9892222 -0.45527864 59.03008592 0.91445691 66 4 C66 4.99 66 5.98 66 7 C64.54054712 6.91291331 63.08234132 6.80473093 61.625 6.6875 C60.81289062 6.62949219 60.00078125 6.57148438 59.1640625 6.51171875 C57 6 57 6 55 3 C52.70338636 2.52352308 52.70338636 2.52352308 49.99951172 2.56762695 C48.43811966 2.53793571 48.43811966 2.53793571 46.84518433 2.50764465 C45.71807037 2.50125473 44.59095642 2.49486481 43.4296875 2.48828125 C41.70264084 2.46135445 41.70264084 2.46135445 39.94070435 2.43388367 C36.25217384 2.3795684 32.56377427 2.34581641 28.875 2.3125 C26.37888794 2.27934573 23.88279321 2.24485787 21.38671875 2.20898438 C15.25792992 2.12382983 9.12912457 2.05557014 3 2 C2.34 3.65 1.68 5.3 1 7 C0.67 7 0.34 7 0 7 C0 4.69 0 2.38 0 0 Z " fill="#D6A537" transform="translate(154,190)"/>
<path d="M0 0 C0.33 0 0.66 0 1 0 C1.75744039 20.68233065 1.75744039 20.68233065 -3 28 C-3.33 28.66 -3.66 29.32 -4 30 C-4.66 30 -5.32 30 -6 30 C-6.66 31.32 -7.32 32.64 -8 34 C-8.99 33.67 -9.98 33.34 -11 33 C-11.66 33.66 -12.32 34.32 -13 35 C-15.1640625 34.9765625 -15.1640625 34.9765625 -17.625 34.625 C-18.44226563 34.51414063 -19.25953125 34.40328125 -20.1015625 34.2890625 C-21.04128906 34.14597656 -21.04128906 34.14597656 -22 34 C-22.75 31.3125 -22.75 31.3125 -23 28 C-21.0625 25.125 -21.0625 25.125 -19 23 C-19 24.32 -19 25.64 -19 27 C-14.05 27 -9.1 27 -4 27 C-4 25.02 -4 23.04 -4 21 C-3.34 21 -2.68 21 -2 21 C-2.020625 20.030625 -2.04125 19.06125 -2.0625 18.0625 C-2 15 -2 15 -1 14 C-0.76472227 11.65012738 -0.58613583 9.29443961 -0.4375 6.9375 C-0.35371094 5.64714844 -0.26992188 4.35679687 -0.18359375 3.02734375 C-0.09271484 1.52880859 -0.09271484 1.52880859 0 0 Z " fill="#B67C0F" transform="translate(337,218)"/>
<path d="M0 0 C1.61455078 0.00483398 1.61455078 0.00483398 3.26171875 0.00976562 C4.38964844 0.01814453 5.51757812 0.02652344 6.6796875 0.03515625 C8.38318359 0.04192383 8.38318359 0.04192383 10.12109375 0.04882812 C12.93234388 0.0606401 15.7434898 0.07711118 18.5546875 0.09765625 C18.5546875 0.75765625 18.5546875 1.41765625 18.5546875 2.09765625 C10.6346875 2.09765625 2.7146875 2.09765625 -5.4453125 2.09765625 C-5.4453125 11.33765625 -5.4453125 20.57765625 -5.4453125 30.09765625 C-12.0453125 30.09765625 -18.6453125 30.09765625 -25.4453125 30.09765625 C-25.4453125 25.80765625 -25.4453125 21.51765625 -25.4453125 17.09765625 C-25.1153125 17.09765625 -24.7853125 17.09765625 -24.4453125 17.09765625 C-24.1153125 20.72765625 -23.7853125 24.35765625 -23.4453125 28.09765625 C-18.1653125 28.09765625 -12.8853125 28.09765625 -7.4453125 28.09765625 C-7.4453125 19.18765625 -7.4453125 10.27765625 -7.4453125 1.09765625 C-4.83580014 -0.20709993 -2.91829965 -0.01535947 0 0 Z " fill="#C19335" transform="translate(179.4453125,242.90234375)"/>
<path d="M0 0 C12.89098663 -0.68853935 12.89098663 -0.68853935 16.625 1.75 C17.40875 2.4925 18.1925 3.235 19 4 C19.61875 4.556875 20.2375 5.11375 20.875 5.6875 C22.67283083 9.38304115 22.53311415 12.97282689 22 17 C20.36726589 20.75528846 18.47336851 22.87135576 15 25 C12.203125 25.29296875 12.203125 25.29296875 9.25 25.1875 C7.77273438 25.14689453 7.77273438 25.14689453 6.265625 25.10546875 C5.51796875 25.07066406 4.7703125 25.03585937 4 25 C4 24.67 4 24.34 4 24 C7.3 24 10.6 24 14 24 C14 23.01 14 22.02 14 21 C15.98 20.34 17.96 19.68 20 19 C20 15.7 20 12.4 20 9 C19.01 9 18.02 9 17 9 C16.67 12.3 16.34 15.6 16 19 C14.68 18.67 13.36 18.34 12 18 C12.66 17.67 13.32 17.34 14 17 C14 14.36 14 11.72 14 9 C11.36 8.34 8.72 7.68 6 7 C6 6.34 6 5.68 6 5 C7.134375 4.87625 8.26875 4.7525 9.4375 4.625 C11.2009375 4.315625 11.2009375 4.315625 13 4 C13.33 3.34 13.66 2.68 14 2 C9.38 2 4.76 2 0 2 C0 1.34 0 0.68 0 0 Z " fill="#C89A2E" transform="translate(281,257)"/>
<path d="M0 0 C0.33 0 0.66 0 1 0 C1 5.28 1 10.56 1 16 C10.24 15.67 19.48 15.34 29 15 C29 32.16 29 49.32 29 67 C25.7 67 22.4 67 19 67 C19 66.67 19 66.34 19 66 C21.31 66 23.62 66 26 66 C26 49.83 26 33.66 26 17 C17.42 17 8.84 17 0 17 C0 11.39 0 5.78 0 0 Z " fill="#AB8314" transform="translate(348,191)"/>
<path d="M0 0 C0.99 0.33 1.98 0.66 3 1 C2.360625 1.94875 1.72125 2.8975 1.0625 3.875 C-2.44276789 10.09685051 -2.67281655 16.41829713 -0.875 23.25 C1.71994015 30.7075307 5.99104674 34.55924113 13 38 C20.12245656 40.16956593 26.99705731 39.03721969 34 37 C34 37.66 34 38.32 34 39 C27.72912263 42.71607548 23.24539726 43.53449652 16 43 C16 42.34 16 41.68 16 41 C15.071875 41.061875 14.14375 41.12375 13.1875 41.1875 C10 41 10 41 8.375 39.625 C7.92125 39.08875 7.4675 38.5525 7 38 C6.29875 37.67 5.5975 37.34 4.875 37 C3 36 3 36 2 33 C1.34 32.67 0.68 32.34 0 32 C0 31.34 0 30.68 0 30 C-0.66 30 -1.32 30 -2 30 C-3.70677712 24.81193938 -4.31176856 20.3209282 -4.25 14.875 C-4.25773437 14.18535156 -4.26546875 13.49570313 -4.2734375 12.78515625 C-4.25800428 8.74936841 -3.78005624 5.63074964 -2 2 C-1.34 2 -0.68 2 0 2 C0 1.34 0 0.68 0 0 Z " fill="#D8A32B" transform="translate(447,216)"/>
<path d="M0 0 C0.33 0.99 0.66 1.98 1 3 C-4.75 8 -4.75 8 -7 8 C-6.34 8.86625 -5.68 9.7325 -5 10.625 C-2.83154571 14.28426662 -2.81508542 15.87409336 -3 20 C-4.19238281 19.97679687 -5.38476562 19.95359375 -6.61328125 19.9296875 C-8.17968124 19.91092822 -9.746088 19.89272819 -11.3125 19.875 C-12.09818359 19.85824219 -12.88386719 19.84148437 -13.69335938 19.82421875 C-14.45068359 19.81777344 -15.20800781 19.81132812 -15.98828125 19.8046875 C-16.68477783 19.79421387 -17.38127441 19.78374023 -18.09887695 19.77294922 C-20.331173 19.89425405 -20.331173 19.89425405 -23 22 C-24.65 18.7 -26.3 15.4 -28 12 C-25.525 12.99 -25.525 12.99 -23 14 C-23 15.32 -23 16.64 -23 18 C-22.01 17.34 -21.02 16.68 -20 16 C-16.64453125 15.8046875 -16.64453125 15.8046875 -12.8125 15.875 C-11.54019531 15.89304688 -10.26789063 15.91109375 -8.95703125 15.9296875 C-7.49330078 15.96449219 -7.49330078 15.96449219 -6 16 C-6.30035156 15.37351563 -6.60070312 14.74703125 -6.91015625 14.1015625 C-7.29042969 13.28429687 -7.67070312 12.46703125 -8.0625 11.625 C-8.44535156 10.81289062 -8.82820313 10.00078125 -9.22265625 9.1640625 C-9.60744141 8.09285156 -9.60744141 8.09285156 -10 7 C-9.67 6.34 -9.34 5.68 -9 5 C-7.865625 4.87625 -6.73125 4.7525 -5.5625 4.625 C-3.7990625 4.315625 -3.7990625 4.315625 -2 4 C-0.48705712 2.06402968 -0.48705712 2.06402968 0 0 Z " fill="#C68402" transform="translate(226,233)"/>
<path d="M0 0 C6.81348437 -0.07642878 13.62685705 -0.12875823 20.44067383 -0.16479492 C22.75582002 -0.17982729 25.070938 -0.2002587 27.38598633 -0.22631836 C30.72484324 -0.26294596 34.0633217 -0.27978241 37.40234375 -0.29296875 C38.94038918 -0.31619453 38.94038918 -0.31619453 40.50950623 -0.33988953 C46.88586651 -0.34136334 52.09825294 0.557856 58 3 C57.67 3.66 57.34 4.32 57 5 C56.4028418 4.85961304 55.80568359 4.71922607 55.19042969 4.57458496 C48.81249216 3.1739241 42.76721998 2.69337305 36.25 2.65625 C34.7801062 2.6343158 34.7801062 2.6343158 33.28051758 2.61193848 C29.12968353 2.55013165 24.97871569 2.50979168 20.82763672 2.46826172 C17.7807623 2.43466518 14.73421103 2.38957185 11.6875 2.34375 C10.74487305 2.3384729 9.80224609 2.3331958 8.83105469 2.32775879 C7.96254883 2.31434448 7.09404297 2.30093018 6.19921875 2.28710938 C5.43440186 2.27981812 4.66958496 2.27252686 3.8815918 2.26501465 C2 2 2 2 0 0 Z " fill="#CEA033" transform="translate(70,190)"/>
<path d="M0 0 C1.37988943 2.75977886 0.62402826 4.01978801 -0.25 6.9375 C-0.50265625 7.81277344 -0.7553125 8.68804687 -1.015625 9.58984375 C-2.03535902 12.08657347 -3.06905174 13.18263694 -5 15 C-6.80719402 19.91958371 -7.36274064 24.65040078 -7.75390625 29.86328125 C-8 32 -8 32 -9 34 C-9.15123831 35.5195764 -9.24881693 37.04472502 -9.31640625 38.5703125 C-9.35830078 39.46621094 -9.40019531 40.36210937 -9.44335938 41.28515625 C-9.50233398 42.69087891 -9.50233398 42.69087891 -9.5625 44.125 C-9.60568359 45.06988281 -9.64886719 46.01476562 -9.69335938 46.98828125 C-9.79959072 49.32537092 -9.90163176 51.6625683 -10 54 C-10.66 54 -11.32 54 -12 54 C-12.49371293 35.98862096 -12.22480457 14.66248881 0 0 Z " fill="#CEA53B" transform="translate(259,186)"/>
<path d="M0 0 C1.65 0 3.3 0 5 0 C5.19588601 3.6454342 5.38030536 7.2913579 5.5625 10.9375 C5.61857422 11.97841797 5.67464844 13.01933594 5.73242188 14.09179688 C5.78076172 15.08115234 5.82910156 16.07050781 5.87890625 17.08984375 C5.9260376 18.00628662 5.97316895 18.92272949 6.02172852 19.86694336 C6 22 6 22 5 23 C3.35 23 1.7 23 0 23 C0 15.41 0 7.82 0 0 Z " fill="#F4B323" transform="translate(307,259)"/>
<path d="M0 0 C3 1 3 1 4.07495117 2.62646484 C4.39439697 3.31434082 4.71384277 4.0022168 5.04296875 4.7109375 C5.39423828 5.46117187 5.74550781 6.21140625 6.10742188 6.984375 C6.64206055 8.16773438 6.64206055 8.16773438 7.1875 9.375 C7.55552734 10.15617188 7.92355469 10.93734375 8.30273438 11.7421875 C11 17.58709705 11 17.58709705 11 21 C9.09021367 21.7266797 7.17181485 22.43075588 5.25 23.125 C4.18265625 23.51945312 3.1153125 23.91390625 2.015625 24.3203125 C-1 25 -1 25 -3.390625 24.1171875 C-3.92171875 23.74851563 -4.4528125 23.37984375 -5 23 C-3.68 23 -2.36 23 -1 23 C-1 22.01 -1 21.02 -1 20 C2.3 20 5.6 20 9 20 C8.67 18.68 8.34 17.36 8 16 C7.34 15.67 6.68 15.34 6 15 C5.20232884 12.96637681 4.59725066 10.90638777 3.9765625 8.8125 C3.15382318 6.8229737 3.15382318 6.8229737 1.0703125 6.22265625 C-1.46527365 5.94996114 -3.53813342 6.38453335 -6 7 C-6 7.66 -6 8.32 -6 9 C-7.32 9 -8.64 9 -10 9 C-10 8.34 -10 7.68 -10 7 C-8.06640625 5.52734375 -8.06640625 5.52734375 -5.5625 3.9375 C-2.6281857 2.16321108 -2.6281857 2.16321108 0 0 Z " fill="#BA9637" transform="translate(391,154)"/>
<path d="M0 0 C4.29 0 8.58 0 13 0 C13 0.99 13 1.98 13 3 C10.03 3 7.06 3 4 3 C4.33 5.64 4.66 8.28 5 11 C6.65 11.33 8.3 11.66 10 12 C10 12.66 10 13.32 10 14 C9.36191406 14.12117188 8.72382813 14.24234375 8.06640625 14.3671875 C7.24011719 14.53476562 6.41382813 14.70234375 5.5625 14.875 C4.32693359 15.11863281 4.32693359 15.11863281 3.06640625 15.3671875 C2.38449219 15.57601563 1.70257813 15.78484375 1 16 C0.67 16.66 0.34 17.32 0 18 C-0.19430855 15.3753399 -0.38073238 12.75053235 -0.5625 10.125 C-0.61857422 9.37863281 -0.67464844 8.63226563 -0.73242188 7.86328125 C-1.11328125 2.2265625 -1.11328125 2.2265625 0 0 Z " fill="#FBAD07" transform="translate(211,259)"/>
<path d="M0 0 C4.62 0 9.24 0 14 0 C14.33 1.65 14.66 3.3 15 5 C15.66 5.66 16.32 6.32 17 7 C13.37 7 9.74 7 6 7 C6 7.66 6 8.32 6 9 C3.625 8.3125 3.625 8.3125 1 7 C-0.375 4.5 -0.375 4.5 -1 2 C-0.67 1.34 -0.34 0.68 0 0 Z " fill="#A46C02" transform="translate(205,252)"/>
<path d="M0 0 C0 3 0 3 -1.36328125 4.42578125 C-1.90339844 4.94527344 -2.44351562 5.46476563 -3 6 C-4.19599068 8.03232242 -4.19599068 8.03232242 -5.1875 10.1875 C-5.53167969 10.90292969 -5.87585938 11.61835938 -6.23046875 12.35546875 C-6.48441406 12.89816406 -6.73835938 13.44085938 -7 14 C-7.66 14 -8.32 14 -9 14 C-9 14.99 -9 15.98 -9 17 C-9.66 17 -10.32 17 -11 17 C-11.2165625 18.3303125 -11.2165625 18.3303125 -11.4375 19.6875 C-11.74872686 21.52028041 -12.08652994 23.35120976 -12.53125 25.15625 C-13.17399483 29.05556865 -13.10547497 32.86872017 -13.0625 36.8125 C-13.05798828 37.60076172 -13.05347656 38.38902344 -13.04882812 39.20117188 C-13.03711312 41.13414761 -13.01917998 43.06708393 -13 45 C-16.19440166 41.80559834 -16.18167371 38.82733167 -16.25 34.5 C-16.1353991 20.97709337 -10.83098377 10.95594986 -2 1 C-1.34 0.67 -0.68 0.34 0 0 Z " fill="#CEA03C" transform="translate(440,198)"/>
<path d="M0 0 C4.54787234 2.52659574 4.54787234 2.52659574 6.25 5.25 C5.97285499 10.28900017 4.64782386 14.82324825 2.25 19.25 C0.93 18.92 -0.39 18.59 -1.75 18.25 C-1.09 17.54875 -0.43 16.8475 0.25 16.125 C2.61494446 12.72539234 2.92568691 11.30412149 2.25 7.25 C0.97675163 4.22071892 0.97675163 4.22071892 -1.75 2.25 C-4.89346019 1.53479071 -7.6065986 1.53348939 -10.75 2.25 C-14.49756687 5.43543184 -15.30245138 8.43885231 -15.75 13.25 C-16.41 13.25 -17.07 13.25 -17.75 13.25 C-18 6.625 -18 6.625 -15.75 3.25 C-15.09 3.25 -14.43 3.25 -13.75 3.25 C-13.75 2.26 -13.75 1.27 -13.75 0.25 C-9.11971141 -1.29342953 -4.66685456 -1.27277852 0 0 Z " fill="#E2A31D" transform="translate(294.75,186.75)"/>
<path d="M0 0 C0.66 0 1.32 0 2 0 C3.75 2.1875 3.75 2.1875 5 5 C4.1875 7.8125 4.1875 7.8125 3 10 C2.34 10 1.68 10 1 10 C1 11.32 1 12.64 1 14 C1.99 13.67 2.98 13.34 4 13 C4.33 13.33 4.66 13.66 5 14 C5 13.67 5 13.34 5 13 C8.96 13 12.92 13 17 13 C17.33 14.32 17.66 15.64 18 17 C12.06 17 6.12 17 0 17 C0 11.39 0 5.78 0 0 Z " fill="#F7B21C" transform="translate(259,264)"/>
<path d="M0 0 C0.33 0 0.66 0 1 0 C1 1.98 1 3.96 1 6 C-2.63 6 -6.26 6 -10 6 C-10 6.99 -10 7.98 -10 9 C-5.71 9 -1.42 9 3 9 C2.67 10.32 2.34 11.64 2 13 C2 12.01 2 11.02 2 10 C1.01 10.66 0.02 11.32 -1 12 C-3.375 12.23046875 -3.375 12.23046875 -6 12.1875 C-6.86625 12.18105469 -7.7325 12.17460937 -8.625 12.16796875 C-11 12 -11 12 -14 11 C-14 9.68 -14 8.36 -14 7 C-13.34 7 -12.68 7 -12 7 C-11.34 5.35 -10.68 3.7 -10 2 C-6.7 2 -3.4 2 0 2 C0 1.34 0 0.68 0 0 Z " fill="#DEA123" transform="translate(274,267)"/>
<path d="M0 0 C-11.02835895 8.85133225 -21.9229068 11.99053971 -36 11 C-38.77030425 10.50636668 -41.3041789 9.82948342 -44 9 C-44 8.67 -44 8.34 -44 8 C-43.44127197 8.00523682 -42.88254395 8.01047363 -42.30688477 8.01586914 C-39.72543506 8.03691719 -37.14400351 8.04974734 -34.5625 8.0625 C-33.24475586 8.07506836 -33.24475586 8.07506836 -31.90039062 8.08789062 C-26.18216923 8.10899107 -20.67199185 7.73280057 -15 7 C-15 6.34 -15 5.68 -15 5 C-14.43410156 4.80664062 -13.86820312 4.61328125 -13.28515625 4.4140625 C-12.55167969 4.15367187 -11.81820312 3.89328125 -11.0625 3.625 C-10.33160156 3.36976563 -9.60070312 3.11453125 -8.84765625 2.8515625 C-6.81317884 2.14728587 -6.81317884 2.14728587 -6 0 C-3 -1 -3 -1 0 0 Z " fill="#CCA131" transform="translate(498,264)"/>
<path d="M0 0 C2.97922593 -0.02683987 5.95821295 -0.04676037 8.9375 -0.0625 C9.78763672 -0.07087891 10.63777344 -0.07925781 11.51367188 -0.08789062 C12.32255859 -0.09111328 13.13144531 -0.09433594 13.96484375 -0.09765625 C14.7137085 -0.10289307 15.46257324 -0.10812988 16.23413086 -0.11352539 C18 0 18 0 19 1 C19.125 3.5 19.125 3.5 19 6 C18.67 6.33 18.34 6.66 18 7 C16.02 7 14.04 7 12 7 C12 12.61 12 18.22 12 24 C11.67 24 11.34 24 11 24 C10.67 21.69 10.34 19.38 10 17 C9.67 17 9.34 17 9 17 C8.91913853 15.20906809 8.86087298 13.41710372 8.8125 11.625 C8.77769531 10.62726563 8.74289062 9.62953125 8.70703125 8.6015625 C8.85205078 7.31378906 8.85205078 7.31378906 9 6 C9.99 5.34 10.98 4.68 12 4 C10.35 4.33 8.7 4.66 7 5 C6.67 4.01 6.34 3.02 6 2 C3.03 1.505 3.03 1.505 0 1 C0 0.67 0 0.34 0 0 Z " fill="#AA7F26" transform="translate(341,257)"/>
<path d="M0 0 C3.96 0 7.92 0 12 0 C11.67 0.99 11.34 1.98 11 3 C8.69 3 6.38 3 4 3 C2.7937748 6.61867559 2.89183082 9.92506251 2.9375 13.6875 C2.94201172 14.38939453 2.94652344 15.09128906 2.95117188 15.81445312 C2.96293073 17.54300538 2.98086546 19.27151365 3 21 C1.68 21 0.36 21 -1 21 C-1.02710123 18.4374282 -1.04688771 15.87514635 -1.0625 13.3125 C-1.07087891 12.59126953 -1.07925781 11.87003906 -1.08789062 11.12695312 C-1.10587165 7.18910758 -0.78013587 3.90067934 0 0 Z " fill="#FAAD0B" transform="translate(283,259)"/>
<path d="M0 0 C0.66 0 1.32 0 2 0 C2.33 2.97 2.66 5.94 3 9 C3.33 9 3.66 9 4 9 C4 11.97 4 14.94 4 18 C5.98 17.67 7.96 17.34 10 17 C10 17.66 10 18.32 10 19 C14.62 19 19.24 19 24 19 C24 19.99 24 20.98 24 22 C17.07 22 10.14 22 3 22 C2.505 19.48375 2.01 16.9675 1.5 14.375 C1.34337891 13.59431152 1.18675781 12.81362305 1.02539062 12.00927734 C0.24555412 7.9460816 -0.15745622 4.15946835 0 0 Z " fill="#CD9F2C" transform="translate(275,106)"/>
<path d="M0 0 C1.2065625 0.0309375 1.2065625 0.0309375 2.4375 0.0625 C2.4375 1.0525 2.4375 2.0425 2.4375 3.0625 C1.7775 3.0625 1.1175 3.0625 0.4375 3.0625 C0.7675 5.0425 1.0975 7.0225 1.4375 9.0625 C2.0975 9.0625 2.7575 9.0625 3.4375 9.0625 C3.4375 10.0525 3.4375 11.0425 3.4375 12.0625 C4.015 12.31 4.5925 12.5575 5.1875 12.8125 C7.76689979 14.24549988 9.49871592 15.84674676 11.4375 18.0625 C11.4375 18.7225 11.4375 19.3825 11.4375 20.0625 C12.30375 20.289375 13.17 20.51625 14.0625 20.75 C18.05528814 22.30275095 20.27998305 24.20569895 23.4375 27.0625 C17.16336676 27.0625 11.62848402 22.92095816 7.1015625 18.828125 C2.23699472 13.66665872 -1.04267279 7.64204883 -3.5625 1.0625 C-2.5625 0.0625 -2.5625 0.0625 0 0 Z " fill="#CA9D2E" transform="translate(429.5625,243.9375)"/>
<path d="M0 0 C8.03501094 -0.63019694 8.03501094 -0.63019694 12.0625 2 C13.0215625 2.99 13.0215625 2.99 14 4 C13.67 5.32 13.34 6.64 13 8 C11.35 8.33 9.7 8.66 8 9 C8 8.34 8 7.68 8 7 C3.17805357 7.32504259 3.17805357 7.32504259 -0.9375 9.5625 C-1.288125 10.036875 -1.63875 10.51125 -2 11 C-2.33 9.35 -2.66 7.7 -3 6 C-2.01 6 -1.02 6 0 6 C0 5.34 0 4.68 0 4 C1.134375 4.020625 2.26875 4.04125 3.4375 4.0625 C6.81575674 4.41577477 6.81575674 4.41577477 8 3 C5.36 2.34 2.72 1.68 0 1 C0 0.67 0 0.34 0 0 Z " fill="#C49A36" transform="translate(324,257)"/>
<path d="M0 0 C1.93166016 0.01740234 1.93166016 0.01740234 3.90234375 0.03515625 C5.19269531 0.04417969 6.48304688 0.05320312 7.8125 0.0625 C8.81152344 0.07410156 9.81054688 0.08570313 10.83984375 0.09765625 C10.83984375 0.75765625 10.83984375 1.41765625 10.83984375 2.09765625 C6.54984375 2.09765625 2.25984375 2.09765625 -2.16015625 2.09765625 C-1.83015625 3.08765625 -1.50015625 4.07765625 -1.16015625 5.09765625 C2.79984375 5.09765625 6.75984375 5.09765625 10.83984375 5.09765625 C10.50984375 6.08765625 10.17984375 7.07765625 9.83984375 8.09765625 C7.19984375 7.76765625 4.55984375 7.43765625 1.83984375 7.09765625 C1.50984375 8.41765625 1.17984375 9.73765625 0.83984375 11.09765625 C0.17984375 10.10765625 -0.48015625 9.11765625 -1.16015625 8.09765625 C-1.49015625 10.07765625 -1.82015625 12.05765625 -2.16015625 14.09765625 C-2.49015625 14.09765625 -2.82015625 14.09765625 -3.16015625 14.09765625 C-3.354095 11.95239526 -3.54014301 9.80641948 -3.72265625 7.66015625 C-3.87927734 5.86771484 -3.87927734 5.86771484 -4.0390625 4.0390625 C-4.07902344 3.06839844 -4.11898437 2.09773438 -4.16015625 1.09765625 C-3.16015625 0.09765625 -3.16015625 0.09765625 0 0 Z " fill="#BB8D2F" transform="translate(237.16015625,256.90234375)"/>
<path d="M0 0 C0 0.66 0 1.32 0 2 C-1.19625 2.45375 -2.3925 2.9075 -3.625 3.375 C-4.35074219 3.65085937 -5.07648438 3.92671875 -5.82421875 4.2109375 C-7.67039366 4.88046592 -9.55183922 5.45144414 -11.4375 6 C-12.7059375 6.495 -12.7059375 6.495 -14 7 C-14.33 7.99 -14.66 8.98 -15 10 C-18.0625 11.1875 -18.0625 11.1875 -21 12 C-20.67 14.97 -20.34 17.94 -20 21 C-22.5625 18.8125 -22.5625 18.8125 -25 16 C-25.00390625 13.546875 -25.00390625 13.546875 -24 11 C-21.5234375 9.12109375 -21.5234375 9.12109375 -18.375 7.4375 C-17.28832031 6.84710938 -16.20164063 6.25671875 -15.08203125 5.6484375 C-14.06496094 5.10445313 -13.04789063 4.56046875 -12 4 C-10.68453923 3.19230237 -9.37133776 2.38088636 -8.0625 1.5625 C-5.00892883 0.00455553 -3.3637567 -0.40772809 0 0 Z " fill="#D0A53C" transform="translate(242,109)"/>
<path d="M0 0 C1.72115139 2.90233371 1.97168403 4.3805772 1.59375 7.6875 C0.93375 7.6875 0.27375 7.6875 -0.40625 7.6875 C-0.73625 8.3475 -1.06625 9.0075 -1.40625 9.6875 C-1.40625 8.6975 -1.40625 7.7075 -1.40625 6.6875 C-2.06625 6.6875 -2.72625 6.6875 -3.40625 6.6875 C-3.07625 5.0375 -2.74625 3.3875 -2.40625 1.6875 C-8.84125 2.1825 -8.84125 2.1825 -15.40625 2.6875 C-15.40625 1.3675 -15.40625 0.0475 -15.40625 -1.3125 C-13.3274118 -1.61591425 -11.242677 -1.8791325 -9.15625 -2.125 C-7.41601562 -2.35123047 -7.41601562 -2.35123047 -5.640625 -2.58203125 C-2.40625 -2.3125 -2.40625 -2.3125 0 0 Z " fill="#FAAF0B" transform="translate(250.40625,260.3125)"/>
<path d="M0 0 C0.99 0.33 1.98 0.66 3 1 C3 2.65 3 4.3 3 6 C3.66 6 4.32 6 5 6 C6.95031692 10.07723734 7.21581971 13.31692422 7.125 17.8125 C7.10695313 18.97394531 7.08890625 20.13539063 7.0703125 21.33203125 C7.04710937 22.21246094 7.02390625 23.09289062 7 24 C6.01 24 5.02 24 4 24 C3.96261719 23.21496094 3.92523438 22.42992187 3.88671875 21.62109375 C3.4946501 15.35568302 2.75200295 10.62365819 0 5 C0 4.01 0 3.02 0 2 C-0.66 1.67 -1.32 1.34 -2 1 C-1.34 0.67 -0.68 0.34 0 0 Z " fill="#DAA22B" transform="translate(314,216)"/>
<path d="M0 0 C0.66 0.33 1.32 0.66 2 1 C1.35300491 3.90821025 0.45685582 6.49201533 -0.8125 9.1875 C-1.12832031 9.88230469 -1.44414062 10.57710937 -1.76953125 11.29296875 C-3 13 -3 13 -4.74609375 13.859375 C-7.91316637 14.05697398 -10.27520416 13.12954633 -13.25 12.0625 C-14.32765625 11.68222656 -15.4053125 11.30195313 -16.515625 10.91015625 C-17.33546875 10.60980469 -18.1553125 10.30945313 -19 10 C-18.67 9.34 -18.34 8.68 -18 8 C-15.1875 7.1875 -15.1875 7.1875 -12 7 C-9.625 8.4375 -9.625 8.4375 -8 10 C-5.37812506 8.95125002 -4.20628639 8.35068687 -2.75 5.875 C-2.5025 5.25625 -2.255 4.6375 -2 4 C-1.34 4 -0.68 4 0 4 C0 2.68 0 1.36 0 0 Z " fill="#DDAA2B" transform="translate(207,169)"/>
<path d="M0 0 C0.99 0 1.98 0 3 0 C3 0.66 3 1.32 3 2 C4.32 2.33 5.64 2.66 7 3 C6.34 3.66 5.68 4.32 5 5 C4.01 6.485 4.01 6.485 3 8 C4.65 8.33 6.3 8.66 8 9 C7.01 9.66 6.02 10.32 5 11 C5 11.66 5 12.32 5 13 C-0.875 11.125 -0.875 11.125 -2 10 C-2.35897436 3.53846154 -2.35897436 3.53846154 0 0 Z " fill="#DEA920" transform="translate(366,259)"/>
<path d="M0 0 C0.74886475 0.00523682 1.49772949 0.01047363 2.26928711 0.01586914 C3.07817383 0.0190918 3.88706055 0.02231445 4.72045898 0.02563477 C5.5705957 0.03401367 6.42073242 0.04239258 7.29663086 0.05102539 C8.15063477 0.05553711 9.00463867 0.06004883 9.88452148 0.06469727 C12.00108749 0.07652166 14.11761771 0.0944577 16.23413086 0.11352539 C16.23413086 2.42352539 16.23413086 4.73352539 16.23413086 7.11352539 C11.94413086 7.11352539 7.65413086 7.11352539 3.23413086 7.11352539 C7.4504222 5.00537972 9.63203861 4.93652184 14.23413086 5.11352539 C14.23413086 4.12352539 14.23413086 3.13352539 14.23413086 2.11352539 C9.28413086 2.11352539 4.33413086 2.11352539 -0.76586914 2.11352539 C-1.09586914 3.10352539 -1.42586914 4.09352539 -1.76586914 5.11352539 C-2.32836914 3.17602539 -2.32836914 3.17602539 -2.76586914 1.11352539 C-1.76586914 0.11352539 -1.76586914 0.11352539 0 0 Z " fill="#B1913B" transform="translate(260.765869140625,256.886474609375)"/>
<path d="M0 0 C0.99 0.33 1.98 0.66 3 1 C2.360625 1.94875 1.72125 2.8975 1.0625 3.875 C-1.96733514 9.25295737 -2.65200038 14.71205523 -1.453125 20.7578125 C-0.34768628 24.62684803 0.75531331 27.63296997 3 31 C2.01 31.33 1.02 31.66 0 32 C0 31.34 0 30.68 0 30 C-0.66 30 -1.32 30 -2 30 C-3.70677712 24.81193938 -4.31176856 20.3209282 -4.25 14.875 C-4.25773437 14.18535156 -4.26546875 13.49570313 -4.2734375 12.78515625 C-4.25800428 8.74936841 -3.78005624 5.63074964 -2 2 C-1.34 2 -0.68 2 0 2 C0 1.34 0 0.68 0 0 Z " fill="#E0B429" transform="translate(447,216)"/>
<path d="M0 0 C0.66 0.66 1.32 1.32 2 2 C-0.97359449 3.48679725 -3.66299179 3.11112605 -6.9765625 3.09765625 C-7.66181 3.0962413 -8.3470575 3.09482635 -9.05307007 3.09336853 C-11.24375761 3.08776675 -13.4343433 3.07521406 -15.625 3.0625 C-17.10937352 3.05748522 -18.59374865 3.05292228 -20.078125 3.04882812 C-23.71878315 3.03779677 -27.35938164 3.02053099 -31 3 C-31 2.01 -31 1.02 -31 0 C-27.3338606 -0.19891332 -23.66709047 -0.38204172 -20 -0.5625 C-18.97003906 -0.61857422 -17.94007813 -0.67464844 -16.87890625 -0.73242188 C-11.10834097 -1.00808582 -5.68637737 -1.09910303 0 0 Z " fill="#C98D12" transform="translate(205,205)"/>
<path d="M0 0 C0.33 0 0.66 0 1 0 C1 4.62 1 9.24 1 14 C-7.58 14 -16.16 14 -25 14 C-25.33 14.66 -25.66 15.32 -26 16 C-26 15.01 -26 14.02 -26 13 C-23.42788678 11.71394339 -21.43093034 11.78956059 -18.5546875 11.68359375 C-17.47832031 11.64169922 -16.40195312 11.59980469 -15.29296875 11.55664062 C-14.16503906 11.51732422 -13.03710938 11.47800781 -11.875 11.4375 C-10.73933594 11.39431641 -9.60367187 11.35113281 -8.43359375 11.30664062 C-5.62254739 11.20034055 -2.8112901 11.09964603 0 11 C0 7.37 0 3.74 0 0 Z " fill="#F2AB1F" transform="translate(419,193)"/>
<path d="M0 0 C3.36016893 1.12005631 4.69064913 2.37211797 7 5 C7 5.66 7 6.32 7 7 C8.98 6.67 10.96 6.34 13 6 C12.67 7.32 12.34 8.64 12 10 C14.64 9.67 17.28 9.34 20 9 C16.64871128 11.96828429 14.39704421 13.29795092 10 14 C8.33041937 11.85637773 6.66423643 9.71026458 5 7.5625 C4.52304688 6.95083984 4.04609375 6.33917969 3.5546875 5.70898438 C0 1.11328125 0 1.11328125 0 0 Z " fill="#DAA525" transform="translate(222,130)"/>
<path d="M0 0 C2.3125 1.38671875 2.3125 1.38671875 5.3125 4.38671875 C2.3425 4.38671875 -0.6275 4.38671875 -3.6875 4.38671875 C-4.0175 3.72671875 -4.3475 3.06671875 -4.6875 2.38671875 C-4.3575 1.72671875 -4.0275 1.06671875 -3.6875 0.38671875 C-8.1253561 -0.72493357 -12.45706386 -0.72855888 -17 -0.67578125 C-18.11084961 -0.66901367 -18.11084961 -0.66901367 -19.24414062 -0.66210938 C-21.05862899 -0.650403 -22.87307534 -0.63247023 -24.6875 -0.61328125 C-18.10812425 -7.192657 -7.22563115 -3.49728949 0 0 Z " fill="#C09938" transform="translate(302.6875,168.61328125)"/>
<path d="M0 0 C2.3828125 -0.29296875 2.3828125 -0.29296875 5.125 -0.1875 C6.03507812 -0.16042969 6.94515625 -0.13335937 7.8828125 -0.10546875 C8.58148438 -0.07066406 9.28015625 -0.03585937 10 0 C9.01 1.485 9.01 1.485 8 3 C5.69 2.67 3.38 2.34 1 2 C1 2.66 1 3.32 1 4 C0.01 3.67 -0.98 3.34 -2 3 C-1.34 2.01 -0.68 1.02 0 0 Z M-4 4 C-3.34 4 -2.68 4 -2 4 C-1.67 6.97 -1.34 9.94 -1 13 C-2.98 13 -4.96 13 -7 13 C-6.44271087 9.65626525 -5.64826111 6.96687001 -4 4 Z " fill="#FAAC0E" transform="translate(323,259)"/>
<path d="M0 0 C2.5 1.5 2.5 1.5 5 4 C5.59991287 6.89472522 5.33485202 8.98633179 5 12 C4.01 13.485 4.01 13.485 3 15 C2.34 15 1.68 15 1 15 C1.33 15.99 1.66 16.98 2 18 C1.34 18.33 0.68 18.66 0 19 C0 18.01 0 17.02 0 16 C-0.66 16 -1.32 16 -2 16 C-2 14.68 -2 13.36 -2 12 C-3.98 12 -5.96 12 -8 12 C-8 11.67 -8 11.34 -8 11 C-0.375 8.875 -0.375 8.875 3 10 C2.05066101 6.64566891 1.10251165 3.30753495 0 0 Z " fill="#DCA524" transform="translate(249,258)"/>
<path d="M0 0 C0.99 0 1.98 0 3 0 C3 0.66 3 1.32 3 2 C5.97 2.495 5.97 2.495 9 3 C9 3.66 9 4.32 9 5 C8.34 5 7.68 5 7 5 C7 11.6 7 18.2 7 25 C6.67 25 6.34 25 6 25 C6 18.07 6 11.14 6 4 C4.35 4 2.7 4 1 4 C1 11.26 1 18.52 1 26 C0.67 26 0.34 26 0 26 C0 17.42 0 8.84 0 0 Z " fill="#977530" transform="translate(306,255)"/>
<path d="M0 0 C3.73265031 0.55401118 6.1455348 1.4957346 9.20703125 3.6875 C9.95791016 4.22117188 10.70878906 4.75484375 11.48242188 5.3046875 C12.25134766 5.86414063 13.02027344 6.42359375 13.8125 7 C14.60076172 7.55945313 15.38902344 8.11890625 16.20117188 8.6953125 C20.40844104 11.71143273 20.40844104 11.71143273 22 13 C22 13.33 22 13.66 22 14 C20.02 14 18.04 14 16 14 C16 13.34 16 12.68 16 12 C15.34 12 14.68 12 14 12 C14 11.01 14 10.02 14 9 C13.01 9.33 12.02 9.66 11 10 C10.34 9.01 9.68 8.02 9 7 C8.34 6.67 7.68 6.34 7 6 C7 5.34 7 4.68 7 4 C2.34947128 3.73067479 2.34947128 3.73067479 -2 5 C-1.34 3.35 -0.68 1.7 0 0 Z " fill="#BE8F2C" transform="translate(184,155)"/>
<path d="M0 0 C6.15234375 -0.09765625 6.15234375 -0.09765625 8 0 C9 1 9 1 9.0625 3.5625 C9.041875 4.366875 9.02125 5.17125 9 6 C6.04335481 7.4783226 3.25770263 7.06032783 0 7 C0 4.69 0 2.38 0 0 Z " fill="#784E00" transform="translate(215,263)"/>
<path d="M0 0 C0.33 0 0.66 0 1 0 C2.09473162 8.02803188 -2.03474887 15.01961786 -6.734375 21.328125 C-8.10351617 22.93197609 -9.54394956 24.47461383 -11 26 C-12.2077558 22.37673261 -11.54311128 21.35853631 -10 18 C-9.01 18 -8.02 18 -7 18 C-7 17.01 -7 16.02 -7 15 C-6.34 15 -5.68 15 -5 15 C-5 14.01 -5 13.02 -5 12 C-4.34 12 -3.68 12 -3 12 C-3 10.68 -3 9.36 -3 8 C-2.34 8 -1.68 8 -1 8 C-0.67 5.36 -0.34 2.72 0 0 Z " fill="#C5992C" transform="translate(510,237)"/>
<path d="M0 0 C0.33 0 0.66 0 1 0 C1.75744039 20.68233065 1.75744039 20.68233065 -3 28 C-3.33 28.66 -3.66 29.32 -4 30 C-5.32 29.67 -6.64 29.34 -8 29 C-8 28.34 -8 27.68 -8 27 C-6.68 27 -5.36 27 -4 27 C-4 25.02 -4 23.04 -4 21 C-3.34 21 -2.68 21 -2 21 C-2.020625 20.030625 -2.04125 19.06125 -2.0625 18.0625 C-2 15 -2 15 -1 14 C-0.76472227 11.65012738 -0.58613583 9.29443961 -0.4375 6.9375 C-0.35371094 5.64714844 -0.26992188 4.35679687 -0.18359375 3.02734375 C-0.12300781 2.02832031 -0.06242187 1.02929688 0 0 Z " fill="#CA972D" transform="translate(337,218)"/>
<path d="M0 0 C0 0.66 0 1.32 0 2 C-0.99 2.12117187 -1.98 2.24234375 -3 2.3671875 C-11.4192007 3.36603223 -11.4192007 3.36603223 -19.6875 5.1875 C-22.92437267 5.9814499 -23.96775009 5.93147546 -27 5 C-18.23422041 0.05520126 -9.88838329 -0.30116903 0 0 Z " fill="#C29735" transform="translate(474,188)"/>
<path d="M0 0 C2.31 0 4.62 0 7 0 C7 0.66 7 1.32 7 2 C1.69920854 5.42342782 -2.9244803 6.44848691 -9.1875 6.8125 C-9.87650391 6.8530249 -10.56550781 6.8935498 -11.27539062 6.93530273 C-15.00873028 7.09115973 -18.37571664 6.92190509 -22 6 C-22 5.67 -22 5.34 -22 5 C-12.1 4.505 -12.1 4.505 -2 4 C-2 3.34 -2 2.68 -2 2 C-1.34 2 -0.68 2 0 2 C0 1.34 0 0.68 0 0 Z " fill="#D7AC3A" transform="translate(126,240)"/>
<path d="M0 0 C2.41466913 1.20733457 4.69115369 2.60254039 7 4 C6.34 5.32 5.68 6.64 5 8 C-0.15464734 7.51675181 -3.81550319 4.81389239 -8 2 C-5.92446352 1.4465236 -4.15634036 1 -2 1 C-1.34 0.67 -0.68 0.34 0 0 Z " fill="#E4A117" transform="translate(340,136)"/>
<path d="M0 0 C0.99 0 1.98 0 3 0 C2.98952637 0.62567871 2.97905273 1.25135742 2.96826172 1.89599609 C2.92676809 4.7222901 2.90069527 7.54852011 2.875 10.375 C2.85824219 11.35984375 2.84148437 12.3446875 2.82421875 13.359375 C2.81777344 14.30039062 2.81132812 15.24140625 2.8046875 16.2109375 C2.79421387 17.08024902 2.78374023 17.94956055 2.77294922 18.84521484 C2.79404891 21.21345939 2.79404891 21.21345939 5 23 C3.35 22.67 1.7 22.34 0 22 C0 14.74 0 7.48 0 0 Z " fill="#E5AE45" transform="translate(280,259)"/>
<path d="M0 0 C4.78478822 -0.09764874 9.27685687 0.22887459 14 1 C14.26218749 4.14624993 14.24754367 5.61837017 12.5 8.3125 C12.005 8.869375 11.51 9.42625 11 10 C9.68 9.67 8.36 9.34 7 9 C7.99 9 8.98 9 10 9 C10 8.34 10 7.68 10 7 C9.34 7 8.68 7 8 7 C8 6.34 8 5.68 8 5 C7.34 4.67 6.68 4.34 6 4 C6.33 3.34 6.66 2.68 7 2 C4.69 1.67 2.38 1.34 0 1 C0 0.67 0 0.34 0 0 Z " fill="#A1721B" transform="translate(367,272)"/>
<path d="M0 0 C0.99 0.33 1.98 0.66 3 1 C4.58466433 4.6583108 4.11064817 8.83147995 4.0625 12.75 C4.05798828 13.44738281 4.05347656 14.14476562 4.04882812 14.86328125 C4.0371002 16.57555803 4.01916653 18.28779033 4 20 C4.99 20 5.98 20 7 20 C7.33 18.68 7.66 17.36 8 16 C8 17.98 8 19.96 8 22 C6.33388095 22.042721 4.66617115 22.04063832 3 22 C0.85423262 19.85423262 1.6244541 15.11650779 1.5 12.125 C1.43099262 10.48160202 1.35822621 8.8383565 1.28125 7.1953125 C1.25095703 6.46328613 1.22066406 5.73125977 1.18945312 4.97705078 C1.05440254 2.78938816 1.05440254 2.78938816 0 0 Z " fill="#D4AE62" transform="translate(207,260)"/>
<path d="M0 0 C0.33 0.99 0.66 1.98 1 3 C1.886875 3.020625 2.77375 3.04125 3.6875 3.0625 C8.27998324 4.36225941 9.65342619 7.0232842 12 11 C11.67 11.66 11.34 12.32 11 13 C9.62437146 11.71034824 8.29233607 10.37310707 7 9 C7 8.34 7 7.68 7 7 C5.9171875 6.566875 5.9171875 6.566875 4.8125 6.125 C3.09168315 5.43667326 1.38019223 4.72359924 -0.3125 3.96875 C-3.21951239 2.92087344 -5.73666904 2.59734923 -8.8125 2.375 C-9.78832031 2.30023438 -10.76414062 2.22546875 -11.76953125 2.1484375 C-12.50558594 2.09945312 -13.24164063 2.05046875 -14 2 C-14 1.67 -14 1.34 -14 1 C-4.58997722 -0.14806378 -4.58997722 -0.14806378 0 0 Z " fill="#DBB140" transform="translate(477,205)"/>
<path d="M0 0 C0.33 0.66 0.66 1.32 1 2 C2.32 2 3.64 2 5 2 C5 2.99 5 3.98 5 5 C5.99 5.33 6.98 5.66 8 6 C8 7.32 8 8.64 8 10 C5.1875 10.625 5.1875 10.625 2 11 C1.01 10.34 0.02 9.68 -1 9 C-0.34 8.34 0.32 7.68 1 7 C0.67673447 3.40320934 0.67673447 3.40320934 0 0 Z " fill="#F7AC07" transform="translate(392,164)"/>
<path d="M0 0 C4.29 0 8.58 0 13 0 C13 0.99 13 1.98 13 3 C10.03 3 7.06 3 4 3 C4 5.64 4 8.28 4 11 C3.67 11 3.34 11 3 11 C3 8.03 3 5.06 3 2 C2.34 2 1.68 2 1 2 C0.34 3.32 -0.32 4.64 -1 6 C-0.67 4.02 -0.34 2.04 0 0 Z " fill="#ECA615" transform="translate(211,259)"/>
<path d="M0 0 C0.99 0.33 1.98 0.66 3 1 C3.33 2.98 3.66 4.96 4 7 C3.278125 6.814375 2.55625 6.62875 1.8125 6.4375 C-1.12826973 5.98004693 -3.14103058 6.26483643 -6 7 C-6 7.66 -6 8.32 -6 9 C-7.32 9 -8.64 9 -10 9 C-10 8.34 -10 7.68 -10 7 C-8.06640625 5.52734375 -8.06640625 5.52734375 -5.5625 3.9375 C-2.6281857 2.16321108 -2.6281857 2.16321108 0 0 Z " fill="#DEAE2B" transform="translate(391,154)"/>
<path d="M0 0 C0 0.33 0 0.66 0 1 C-2.97 1 -5.94 1 -9 1 C-10.1577506 4.47325181 -10.06866652 7.36067448 -10 11 C-8.68 11.66 -7.36 12.32 -6 13 C-7.8125 13.625 -7.8125 13.625 -10 14 C-13 12 -13 12 -14 8.75 C-14 4.84117285 -13.44272728 2.91105074 -10.74609375 0.0234375 C-7.34242183 -1.97155589 -3.66504021 -0.87833208 0 0 Z " fill="#D2AC48" transform="translate(375,258)"/>
<path d="M0 0 C0.33 0 0.66 0 1 0 C1 5.61 1 11.22 1 17 C2.65 17 4.3 17 6 17 C6 17.33 6 17.66 6 18 C4.02 18 2.04 18 0 18 C0 15.03 0 12.06 0 9 C-2.31 9 -4.62 9 -7 9 C-6.01 8.67 -5.02 8.34 -4 8 C-4 5.69 -4 3.38 -4 1 C-2.68 2.32 -1.36 3.64 0 5 C0 3.35 0 1.7 0 0 Z " fill="#9B711C" transform="translate(233,264)"/>
<path d="M0 0 C4.62 0 9.24 0 14 0 C14 0.99 14 1.98 14 3 C12.04235617 3.19456705 10.08384679 3.38044247 8.125 3.5625 C7.03445313 3.66691406 5.94390625 3.77132813 4.8203125 3.87890625 C2 4 2 4 0 3 C0 2.01 0 1.02 0 0 Z " fill="#F7A911" transform="translate(261,259)"/>
<path d="M0 0 C1.11375 0.3403125 1.11375 0.3403125 2.25 0.6875 C1.5 5.4375 1.5 5.4375 -0.75 7.6875 C-2.7734375 8.171875 -2.7734375 8.171875 -5.125 8.4375 C-6.28128906 8.58445312 -6.28128906 8.58445312 -7.4609375 8.734375 C-9.75 8.6875 -9.75 8.6875 -13.75 6.6875 C-10.45 6.6875 -7.15 6.6875 -3.75 6.6875 C-3.75 6.0275 -3.75 5.3675 -3.75 4.6875 C-2.43 4.6875 -1.11 4.6875 0.25 4.6875 C-0.08 4.0275 -0.41 3.3675 -0.75 2.6875 C-2.73 2.6875 -4.71 2.6875 -6.75 2.6875 C-4.29511132 0.41445492 -3.41240272 -0.38777304 0 0 Z " fill="#C0993E" transform="translate(335.75,274.3125)"/>
<path d="M0 0 C0.33 0.99 0.66 1.98 1 3 C-4.75 8 -4.75 8 -7 8 C-5.9790625 9.36125 -5.9790625 9.36125 -4.9375 10.75 C-3 14 -3 14 -3.25 16.375 C-3.62125 17.179375 -3.62125 17.179375 -4 18 C-7.14512215 13.70166639 -8.75696561 10.17930997 -10 5 C-8.8553125 5.0309375 -8.8553125 5.0309375 -7.6875 5.0625 C-4.89814214 5.12942841 -4.89814214 5.12942841 -2 4 C-0.79117904 1.99983534 -0.79117904 1.99983534 0 0 Z " fill="#CB9E39" transform="translate(226,233)"/>
<path d="M0 0 C1.18771723 3.42943519 0.80226223 5.37784675 -0.4375 8.75 C-0.72496094 9.54921875 -1.01242188 10.3484375 -1.30859375 11.171875 C-1.53675781 11.77515625 -1.76492187 12.3784375 -2 13 C1.465 14.485 1.465 14.485 5 16 C4.34 16.66 3.68 17.32 3 18 C-1.455 16.02 -1.455 16.02 -6 14 C-5.37720331 12.41579871 -4.75166599 10.83267469 -4.125 9.25 C-3.60292969 7.92742187 -3.60292969 7.92742187 -3.0703125 6.578125 C-2.1353291 4.3259752 -1.12219206 2.16350541 0 0 Z " fill="#BF963A" transform="translate(181,160)"/>
<path d="M0 0 C1.22589844 0.15275391 1.22589844 0.15275391 2.4765625 0.30859375 C3.41628906 0.43427734 3.41628906 0.43427734 4.375 0.5625 C2.9375 3.125 2.9375 3.125 0.375 5.5625 C-2.72473249 5.7118847 -5.60045382 5.21523326 -8.625 4.5625 C-6.48538859 -0.17521098 -5.07875667 -0.652983 0 0 Z " fill="#825704" transform="translate(316.625,253.4375)"/>
<path d="M0 0 C0.33 1.32 0.66 2.64 1 4 C4.3 4.33 7.6 4.66 11 5 C11 5.99 11 6.98 11 8 C6.71 8 2.42 8 -2 8 C-2.33 7.01 -2.66 6.02 -3 5 C-1.5625 2.3125 -1.5625 2.3125 0 0 Z " fill="#CE8E10" transform="translate(317,241)"/>
<path d="M0 0 C1.65 0 3.3 0 5 0 C2.44225397 2.95601098 -0.45418639 4.41133026 -3.9375 6.125 C-4.97777344 6.64320313 -6.01804687 7.16140625 -7.08984375 7.6953125 C-9.43503691 8.74671454 -11.49354062 9.50474778 -14 10 C-14 9.34 -14 8.68 -14 8 C-12.60922699 7.17886823 -11.21211107 6.36847505 -9.8125 5.5625 C-9.03519531 5.11003906 -8.25789063 4.65757812 -7.45703125 4.19140625 C-4.95068023 2.97608501 -2.74209635 2.42373425 0 2 C0 1.34 0 0.68 0 0 Z " fill="#D4A42F" transform="translate(307,215)"/>
<path d="M0 0 C3.40014092 3.84089992 4.93841379 8.40592976 6.75 13.125 C7.07871094 13.94871094 7.40742188 14.77242187 7.74609375 15.62109375 C8.05160156 16.40871094 8.35710937 17.19632813 8.671875 18.0078125 C8.9512793 18.72598145 9.23068359 19.44415039 9.51855469 20.18408203 C10 22 10 22 9 24 C8.34 23.67 7.68 23.34 7 23 C6.64984951 21.33678518 6.31802943 19.66965451 6 18 C5.34 17.01 4.68 16.02 4 15 C3.30741771 13.00882592 2.64252365 11.0078864 2 9 C1.443125 7.700625 1.443125 7.700625 0.875 6.375 C0 4 0 4 0 0 Z " fill="#C59E3A" transform="translate(242,111)"/>
<path d="M0 0 C0.99 1.32 1.98 2.64 3 4 C-0.63011353 5.81505677 -4.94280504 5.00884371 -8.93359375 4.9375 C-12.04199474 4.84909275 -12.04199474 4.84909275 -15 6 C-15 4.68 -15 3.36 -15 2 C-10.05 2 -5.1 2 0 2 C0 1.34 0 0.68 0 0 Z " fill="#DB9402" transform="translate(218,245)"/>
<path d="M0 0 C0.33 0 0.66 0 1 0 C1 5.61 1 11.22 1 17 C-0.32 17 -1.64 17 -3 17 C-3 14.03 -3 11.06 -3 8 C-2.34 8 -1.68 8 -1 8 C-0.67 5.36 -0.34 2.72 0 0 Z " fill="#F9B727" transform="translate(351,264)"/>
<path d="M0 0 C0.99 0 1.98 0 3 0 C3.08090971 1.62418745 3.13914995 3.24951745 3.1875 4.875 C3.22230469 5.77992188 3.25710938 6.68484375 3.29296875 7.6171875 C3.19628906 8.40351563 3.09960938 9.18984375 3 10 C0 12 0 12 -3 12 C-3 11.34 -3 10.68 -3 10 C-2.34 10 -1.68 10 -1 10 C-0.67 6.7 -0.34 3.4 0 0 Z " fill="#F4B210" transform="translate(298,266)"/>
<path d="M0 0 C0.66 1.32 1.32 2.64 2 4 C4.31 3.34 6.62 2.68 9 2 C9.33 2.99 9.66 3.98 10 5 C8.68 5.33 7.36 5.66 6 6 C6 6.99 6 7.98 6 9 C3.625 8.3125 3.625 8.3125 1 7 C-0.375 4.5 -0.375 4.5 -1 2 C-0.67 1.34 -0.34 0.68 0 0 Z " fill="#895E0E" transform="translate(205,252)"/>
<path d="M0 0 C0.33 1.32 0.66 2.64 1 4 C5.62 4 10.24 4 15 4 C14.67 5.32 14.34 6.64 14 8 C14 7.01 14 6.02 14 5 C13.01 5.66 12.02 6.32 11 7 C8.625 7.23046875 8.625 7.23046875 6 7.1875 C5.13375 7.18105469 4.2675 7.17460937 3.375 7.16796875 C1 7 1 7 -2 6 C-2 4.68 -2 3.36 -2 2 C-1.34 2 -0.68 2 0 2 C0 1.34 0 0.68 0 0 Z " fill="#C18D14" transform="translate(262,272)"/>
<path d="M0 0 C2 3 2 3 2 5 C1.34 5 0.68 5 0 5 C-0.268125 5.639375 -0.53625 6.27875 -0.8125 6.9375 C-2 9 -2 9 -5 10 C-5.73323796 12.01508358 -5.73323796 12.01508358 -6 14 C-7.65 14.33 -9.3 14.66 -11 15 C-9.468788 10.40636401 -5.92803276 8.6186885 -2 6 C-0.78715124 2.94570927 -0.78715124 2.94570927 0 0 Z " fill="#F7B615" transform="translate(492,239)"/>
<path d="M0 0 C0.66 0 1.32 0 2 0 C5.20475771 7.26411747 5.12502344 14.19298055 5 22 C4.67 22 4.34 22 4 22 C3.94392578 21.02160156 3.94392578 21.02160156 3.88671875 20.0234375 C3.48259071 14.65091173 2.76968795 10.73155024 0 6 C-1 3 -1 3 0 0 Z " fill="#CDA429" transform="translate(507,214)"/>
<path d="M0 0 C3.89035092 4.42695105 6.80426867 8.93354251 7.1875 14.9375 C7.125625 15.618125 7.06375 16.29875 7 17 C5.046875 16.3515625 5.046875 16.3515625 3 15 C2.390625 12.3984375 2.390625 12.3984375 2.25 9.375 C2.19328125 8.37210938 2.1365625 7.36921875 2.078125 6.3359375 C2.05234375 5.56507813 2.0265625 4.79421875 2 4 C1.34 4 0.68 4 0 4 C0 2.68 0 1.36 0 0 Z " fill="#D2A530" transform="translate(329,197)"/>
<path d="M0 0 C7.09727428 -0.10808032 13.96094956 0.06145994 21 1 C20.67 1.66 20.34 2.32 20 3 C12.95559921 3.21133202 6.75887425 3.07965362 0 1 C0 0.67 0 0.34 0 0 Z " fill="#CDA14A" transform="translate(454,272)"/>
<path d="M0 0 C1.8871875 0.0309375 1.8871875 0.0309375 3.8125 0.0625 C3.8125 0.3925 3.8125 0.7225 3.8125 1.0625 C2.760625 1.10375 1.70875 1.145 0.625 1.1875 C-4.24991375 2.30633266 -5.51963807 3.90377404 -8.1875 8.0625 C-9.061438 11.28683127 -9.061438 11.28683127 -9.1875 14.0625 C-9.8475 14.0625 -10.5075 14.0625 -11.1875 14.0625 C-11.4375 7.4375 -11.4375 7.4375 -9.1875 4.0625 C-8.5275 4.0625 -7.8675 4.0625 -7.1875 4.0625 C-7.1875 3.0725 -7.1875 2.0825 -7.1875 1.0625 C-4.43671116 0.14557039 -2.82801087 -0.04636083 0 0 Z " fill="#DAA42D" transform="translate(288.1875,185.9375)"/>
<path d="M0 0 C5.97897503 -0.74737188 9.32379721 1.6768102 14 5 C12 6 12 6 10.0546875 5.44140625 C8.97574219 5.00634766 8.97574219 5.00634766 7.875 4.5625 C7.15054687 4.27503906 6.42609375 3.98757812 5.6796875 3.69140625 C5.12539063 3.46324219 4.57109375 3.23507813 4 3 C4 2.34 4 1.68 4 1 C1.27573689 3.35277269 0.1858237 5.62496331 -1 9 C-1.66 9 -2.32 9 -3 9 C-2.01 6.03 -1.02 3.06 0 0 Z " fill="#C69E38" transform="translate(335,109)"/>
<path d="M0 0 C5.40983607 -0.49180328 5.40983607 -0.49180328 8.25 1.875 C8.8275 2.57625 9.405 3.2775 10 4 C10.66 4.66 11.32 5.32 12 6 C10.35 6 8.7 6 7 6 C7 5.34 7 4.68 7 4 C6.01 4 5.02 4 4 4 C4 3.34 4 2.68 4 2 C3.34 2 2.68 2 2 2 C2 2.99 2 3.98 2 5 C2.66 5 3.32 5 4 5 C4.33 6.32 4.66 7.64 5 9 C4.34 9 3.68 9 3 9 C3 8.34 3 7.68 3 7 C2.34 7 1.68 7 1 7 C0.67 4.69 0.34 2.38 0 0 Z " fill="#CD9B2D" transform="translate(317,272)"/>
<path d="M0 0 C0.66 0 1.32 0 2 0 C1.67 1.65 1.34 3.3 1 5 C2.98 4.67 4.96 4.34 7 4 C6.01 4.495 6.01 4.495 5 5 C5 5.66 5 6.32 5 7 C6.98 7 8.96 7 11 7 C11 7.66 11 8.32 11 9 C9.39482903 8.91266424 7.79078338 8.80447776 6.1875 8.6875 C4.84751953 8.60048828 4.84751953 8.60048828 3.48046875 8.51171875 C0.6757147 7.9331002 -0.32589334 7.29414617 -2 5 C-1.74853421 2.86254078 -1.54074221 1.54074221 0 0 Z " fill="#C69B40" transform="translate(363,274)"/>
<path d="M0 0 C2 0.9375 2 0.9375 4 3 C4.36475845 6.02534949 4.22893297 8.96663814 4 12 C3.34 12 2.68 12 2 12 C2.020625 10.865625 2.04125 9.73125 2.0625 8.5625 C2.41577477 5.18424326 2.41577477 5.18424326 1 4 C0.34 5.32 -0.32 6.64 -1 8 C-1.33 6.68 -1.66 5.36 -2 4 C-4.64 3.67 -7.28 3.34 -10 3 C-10 2.67 -10 2.34 -10 2 C-9.04287109 1.90912109 -9.04287109 1.90912109 -8.06640625 1.81640625 C-6.82697266 1.69072266 -6.82697266 1.69072266 -5.5625 1.5625 C-4.73878906 1.48128906 -3.91507813 1.40007812 -3.06640625 1.31640625 C-1.01337975 1.21069185 -1.01337975 1.21069185 0 0 Z " fill="#D99B0F" transform="translate(225,260)"/>
<path d="M0 0 C4.455 0.99 4.455 0.99 9 2 C9 2.66 9 3.32 9 4 C9.99 4.33 10.98 4.66 12 5 C10.68 5 9.36 5 8 5 C8 4.34 8 3.68 8 3 C3.17805357 3.32504259 3.17805357 3.32504259 -0.9375 5.5625 C-1.288125 6.036875 -1.63875 6.51125 -2 7 C-2.33 5.35 -2.66 3.7 -3 2 C-2.01 2 -1.02 2 0 2 C0 1.34 0 0.68 0 0 Z " fill="#BF932B" transform="translate(324,261)"/>
<path d="M0 0 C3.64549523 2.43033015 4.4400472 3.92295522 6 8 C6.34032675 11.138334 6.28552251 14.22319923 6.1875 17.375 C6.17396484 18.20644531 6.16042969 19.03789062 6.14648438 19.89453125 C6.11139059 21.92997066 6.05759228 23.96507291 6 26 C5.67 26 5.34 26 5 26 C4.67 19.73 4.34 13.46 4 7 C3.01 6.67 2.02 6.34 1 6 C0.67 4.02 0.34 2.04 0 0 Z " fill="#D5A63A" transform="translate(136,200)"/>
<path d="M0 0 C1.98 0 3.96 0 6 0 C4.03617993 1.50559539 2.21736634 2.89131683 0 4 C-0.68472665 5.88764903 -0.68472665 5.88764903 -1.125 8.0625 C-1.29257812 8.79597656 -1.46015625 9.52945313 -1.6328125 10.28515625 C-1.75398438 10.85105469 -1.87515625 11.41695312 -2 12 C-2.66 12 -3.32 12 -4 12 C-3.67 9.03 -3.34 6.06 -3 3 C-2.01 2.67 -1.02 2.34 0 2 C0 1.34 0 0.68 0 0 Z " fill="#BE9528" transform="translate(269,235)"/>
<path d="M0 0 C0.66 0.33 1.32 0.66 2 1 C0.28484687 4.59365417 -1.34807246 8.00216887 -4 11 C-4.66 11 -5.32 11 -6 11 C-6.33 8.69 -6.66 6.38 -7 4 C-5.35 4 -3.7 4 -2 4 C-1.34 2.68 -0.68 1.36 0 0 Z " fill="#DDA723" transform="translate(139,229)"/>
<path d="M0 0 C5.88662886 0.46473386 11.06652725 2.84971017 16 6 C17.80078125 8.16796875 17.80078125 8.16796875 19 10 C17.02 9.34 15.04 8.68 13 8 C13 7.34 13 6.68 13 6 C11.35 5.67 9.7 5.34 8 5 C8 4.34 8 3.68 8 3 C6.35 3 4.7 3 3 3 C3 2.34 3 1.68 3 1 C2.01 0.67 1.02 0.34 0 0 Z " fill="#C59739" transform="translate(479,190)"/>
<path d="M0 0 C0.80824219 0.11085938 1.61648437 0.22171875 2.44921875 0.3359375 C3.37154297 0.47902344 3.37154297 0.47902344 4.3125 0.625 C4.3125 0.955 4.3125 1.285 4.3125 1.625 C1.6725 1.625 -0.9675 1.625 -3.6875 1.625 C-3.6875 3.935 -3.6875 6.245 -3.6875 8.625 C-4.3475 7.965 -5.0075 7.305 -5.6875 6.625 C-6.6775 6.625 -7.6675 6.625 -8.6875 6.625 C-8.375 4.25 -8.375 4.25 -7.6875 1.625 C-4.33422361 -0.61051759 -3.78006343 -0.54783528 0 0 Z " fill="#C38D18" transform="translate(219.6875,273.375)"/>
<path d="M0 0 C0.99 0 1.98 0 3 0 C5.875 6.625 5.875 6.625 7 10 C1.125 8.125 1.125 8.125 0 7 C-0.04092937 4.66702567 -0.04241723 2.33294775 0 0 Z " fill="#F6A50E" transform="translate(364,262)"/>
<path d="M0 0 C1.87939453 -0.2487793 1.87939453 -0.2487793 4.1328125 -0.07421875 C5.34130859 0.00795898 5.34130859 0.00795898 6.57421875 0.09179688 C7.41597656 0.16462891 8.25773437 0.23746094 9.125 0.3125 C10.39923828 0.4043457 10.39923828 0.4043457 11.69921875 0.49804688 C13.80053665 0.65151391 15.90045124 0.82397722 18 1 C18 1.33 18 1.66 18 2 C12.39 2 6.78 2 1 2 C1 2.99 1 3.98 1 5 C2.65 5 4.3 5 6 5 C6 5.33 6 5.66 6 6 C3.69 6.33 1.38 6.66 -1 7 C-1.625 5.1875 -1.625 5.1875 -2 3 C-1.34 2.01 -0.68 1.02 0 0 Z " fill="#DEB24E" transform="translate(340,257)"/>
<path d="M0 0 C2.25 -0.25 2.25 -0.25 5 0 C7.79035429 2.2477854 8.85910005 3.57730016 10 7 C12.01508358 7.73323796 12.01508358 7.73323796 14 8 C14.33 7.34 14.66 6.68 15 6 C15 6.99 15 7.98 15 9 C11.6875 9.25 11.6875 9.25 8 9 C6.0625 7.1875 6.0625 7.1875 5 5 C5 4.01 5 3.02 5 2 C3.35 1.67 1.7 1.34 0 1 C0 0.67 0 0.34 0 0 Z " fill="#BE9336" transform="translate(239,273)"/>
<path d="M0 0 C3.93846154 4.30769231 3.93846154 4.30769231 4.25 7.8125 C4.1675 8.534375 4.085 9.25625 4 10 C3.34 10 2.68 10 2 10 C1.67 10.66 1.34 11.32 1 12 C1 11.01 1 10.02 1 9 C0.34 9 -0.32 9 -1 9 C-0.67 6.03 -0.34 3.06 0 0 Z " fill="#F5B313" transform="translate(248,258)"/>
<path d="M0 0 C0.50789063 0.40992188 1.01578125 0.81984375 1.5390625 1.2421875 C5.5640887 4.39286344 8.95184246 6.73796061 14 8 C11 10 11 10 8 10 C6.97803008 9.02246356 5.98020375 8.0194119 5 7 C4.29875 6.71125 3.5975 6.4225 2.875 6.125 C1 5 1 5 0.25 2.375 C0.1675 1.59125 0.085 0.8075 0 0 Z " fill="#C89F2F" transform="translate(449,247)"/>
<path d="M0 0 C2 1 2 1 3 3 C2.67 4.32 2.34 5.64 2 7 C-0.64 7.66 -3.28 8.32 -6 9 C-4.68 6.69 -3.36 4.38 -2 2 C-1.34 2 -0.68 2 0 2 C0 1.34 0 0.68 0 0 Z " fill="#D09C1C" transform="translate(266,176)"/>
<path d="M0 0 C3.625 0.375 3.625 0.375 7 1 C6.67 1.66 6.34 2.32 6 3 C2.9375 3.625 2.9375 3.625 0 4 C-0.103125 4.639375 -0.20625 5.27875 -0.3125 5.9375 C-0.539375 6.618125 -0.76625 7.29875 -1 8 C-1.99 8.33 -2.98 8.66 -4 9 C-2.25 2.25 -2.25 2.25 0 0 Z " fill="#F6AC14" transform="translate(184,158)"/>
<path d="M0 0 C0 0.66 0 1.32 0 2 C1.98 2 3.96 2 6 2 C2.47320901 4.35119399 0.97120515 4.21443452 -3.1875 4.125 C-4.27417969 4.10695312 -5.36085938 4.08890625 -6.48046875 4.0703125 C-7.72763672 4.03550781 -7.72763672 4.03550781 -9 4 C-8 2 -8 2 -5.0625 0.875 C-2 0 -2 0 0 0 Z " fill="#E99D05" transform="translate(326,242)"/>
<path d="M0 0 C3.625 -0.1875 3.625 -0.1875 7 0 C7 0.66 7 1.32 7 2 C8.65 1.34 10.3 0.68 12 0 C12.33 0.99 12.66 1.98 13 3 C8.05 3 3.1 3 -2 3 C-1.34 2.01 -0.68 1.02 0 0 Z " fill="#EF9E03" transform="translate(205,244)"/>
<path d="M0 0 C4.85967024 2.50346649 8.27856704 6.08552441 12 10 C11.34 10.66 10.68 11.32 10 12 C8.62437146 10.71034824 7.29233607 9.37310707 6 8 C6 7.34 6 6.68 6 6 C5.01 6 4.02 6 3 6 C3 5.34 3 4.68 3 4 C2.34 4 1.68 4 1 4 C0.67 2.68 0.34 1.36 0 0 Z " fill="#BF902E" transform="translate(308,173)"/>
<path d="M0 0 C0.99 0 1.98 0 3 0 C3 1.32 3 2.64 3 4 C2.34 4 1.68 4 1 4 C0.34 5.98 -0.32 7.96 -1 10 C-1.66 9.67 -2.32 9.34 -3 9 C-3 7.35 -3 5.7 -3 4 C-2.01 3.67 -1.02 3.34 0 3 C0 2.01 0 1.02 0 0 Z " fill="#F5A90F" transform="translate(204,169)"/>
<path d="M0 0 C1.57156655 3.1431331 0.11705576 5.365464 -0.9375 8.625 C-1.31777344 9.81351563 -1.69804687 11.00203125 -2.08984375 12.2265625 C-2.39019531 13.14179688 -2.69054687 14.05703125 -3 15 C-3.66 15 -4.32 15 -5 15 C-4.5188509 9.22621075 -2.81532819 5.04140164 0 0 Z " fill="#C09D34" transform="translate(331,120)"/>
<path d="M0 0 C0.433125 0.9590625 0.433125 0.9590625 0.875 1.9375 C1.82823451 4.15206079 1.82823451 4.15206079 4 5 C3.34 6.32 2.68 7.64 2 9 C1.34 9 0.68 9 0 9 C-0.33 9.66 -0.66 10.32 -1 11 C-2.60080151 6.99799622 -1.29279692 3.95443764 0 0 Z " fill="#F9B30C" transform="translate(236,264)"/>
<path d="M0 0 C2.5 1.5 2.5 1.5 5 4 C5.66418865 6.94733714 5.39241643 8.90972061 5 12 C3.46875 13.74609375 3.46875 13.74609375 2 15 C2.02320313 14.33613281 2.04640625 13.67226563 2.0703125 12.98828125 C2.23624305 6.27138984 2.23624305 6.27138984 0 0 Z " fill="#CB9E3C" transform="translate(249,258)"/>
<path d="M0 0 C4.66283606 3.51582826 7.72210402 6.03648545 9 12 C8.34 12.66 7.68 13.32 7 14 C6.01 11.03 5.02 8.06 4 5 C3.01 5 2.02 5 1 5 C0.67 3.35 0.34 1.7 0 0 Z " fill="#C89E3E" transform="translate(498,200)"/>
<path d="M0 0 C3.48961981 3.02433717 4.88132949 5.52531798 6 10 C6 11.32 6 12.64 6 14 C5.34 14 4.68 14 4 14 C2.13459373 9.29593201 0.63156995 5.05255964 0 0 Z " fill="#C2953D" transform="translate(226,200)"/>
<path d="M0 0 C0 3 0 3 -1.8125 5.1875 C-6.46396362 7.8324499 -10.7659243 7.32999426 -16 7 C-16 6.67 -16 6.34 -16 6 C-12.7 6 -9.4 6 -6 6 C-6 5.01 -6 4.02 -6 3 C-4.02 2.01 -2.04 1.02 0 0 Z " fill="#B98F2F" transform="translate(301,275)"/>
<path d="M0 0 C1.32 0 2.64 0 4 0 C4 0.66 4 1.32 4 2 C5.65 2.33 7.3 2.66 9 3 C8.625 4.9375 8.625 4.9375 8 7 C7.01 7.495 7.01 7.495 6 8 C3 4.25 3 4.25 3 2 C2.01 2 1.02 2 0 2 C0 1.34 0 0.68 0 0 Z " fill="#D7A425" transform="translate(205,207)"/>
<path d="M0 0 C1.48976459 0.70726198 2.96662996 1.44173906 4.4375 2.1875 C5.26121094 2.59355469 6.08492188 2.99960938 6.93359375 3.41796875 C9 5 9 5 9.91015625 7.55078125 C9.93980469 8.35902344 9.96945312 9.16726562 10 10 C9.34 10.66 8.68 11.32 8 12 C8 10.02 8 8.04 8 6 C6.68 6 5.36 6 4 6 C4 5.34 4 4.68 4 4 C3.34 4 2.68 4 2 4 C2 3.34 2 2.68 2 2 C1.34 2 0.68 2 0 2 C0 1.34 0 0.68 0 0 Z " fill="#C49E41" transform="translate(350,115)"/>
<path d="M0 0 C2.31 0.66 4.62 1.32 7 2 C7 2.99 7 3.98 7 5 C4.69 5 2.38 5 0 5 C0 3.35 0 1.7 0 0 Z " fill="#5D3B01" transform="translate(216,264)"/>
<path d="M0 0 C1.98 0 3.96 0 6 0 C6.33 0.99 6.66 1.98 7 3 C7.33 2.34 7.66 1.68 8 1 C9.98 1 11.96 1 14 1 C11.6875 3.0625 11.6875 3.0625 9 5 C8.01 4.67 7.02 4.34 6 4 C6 3.34 6 2.68 6 2 C4.35 2 2.7 2 1 2 C0.67 1.34 0.34 0.68 0 0 Z " fill="#F9AB06" transform="translate(341,259)"/>
<path d="M0 0 C0.33 0 0.66 0 1 0 C1.33 3.63 1.66 7.26 2 11 C3.65 11 5.3 11 7 11 C6.67 11.66 6.34 12.32 6 13 C4.02 13 2.04 13 0 13 C0 8.71 0 4.42 0 0 Z " fill="#9D7221" transform="translate(154,260)"/>
<path d="M0 0 C0.66 0.33 1.32 0.66 2 1 C2 2.65 2 4.3 2 6 C0.02 6 -1.96 6 -4 6 C-3.67 4.35 -3.34 2.7 -3 1 C-2.01 0.67 -1.02 0.34 0 0 Z " fill="#EAA919" transform="translate(320,266)"/>
<path d="M0 0 C0.33 0 0.66 0 1 0 C1 1.65 1 3.3 1 5 C-3.29 5 -7.58 5 -12 5 C-7.78370866 2.89185433 -5.60209225 2.82299645 -1 3 C-0.67 2.01 -0.34 1.02 0 0 Z " fill="#926F28" transform="translate(276,259)"/>
<path d="M0 0 C0 1.98 0 3.96 0 6 C-0.99 6.495 -0.99 6.495 -2 7 C-2.66 6.34 -3.32 5.68 -4 5 C-4.99 4.34 -5.98 3.68 -7 3 C-7 2.34 -7 1.68 -7 1 C-1.125 0 -1.125 0 0 0 Z " fill="#CB8E08" transform="translate(376,258)"/>
<path d="M0 0 C0.99 0.33 1.98 0.66 3 1 C1.99088542 2.72526042 0.98177083 4.45052083 -0.02734375 6.17578125 C-1.13901247 8.13819555 -1.13901247 8.13819555 -2 11 C-2.66 11 -3.32 11 -4 11 C-3.125 4.25 -3.125 4.25 -2 2 C-1.34 2 -0.68 2 0 2 C0 1.34 0 0.68 0 0 Z " fill="#D9AE37" transform="translate(447,216)"/>
<path d="M0 0 C0.33 0 0.66 0 1 0 C1.05389087 1.95803507 1.09274217 3.91648909 1.125 5.875 C1.14820313 6.96554688 1.17140625 8.05609375 1.1953125 9.1796875 C1 12 1 12 -1 14 C-2.12029814 8.51053913 -1.79217969 5.16569441 0 0 Z " fill="#C79930" transform="translate(250,206)"/>
<path d="M0 0 C1.20076172 0.31324219 1.20076172 0.31324219 2.42578125 0.6328125 C3.23402344 0.83648437 4.04226562 1.04015625 4.875 1.25 C5.48988281 1.41757813 6.10476562 1.58515625 6.73828125 1.7578125 C6.73828125 2.7478125 6.73828125 3.7378125 6.73828125 4.7578125 C0.79828125 3.2728125 0.79828125 3.2728125 -5.26171875 1.7578125 C-2.26171875 -0.2421875 -2.26171875 -0.2421875 0 0 Z " fill="#D6AB39" transform="translate(120.26171875,190.2421875)"/>
<path d="M0 0 C2.0625 -0.375 2.0625 -0.375 5 0 C7.53572282 1.79177109 9.77174488 3.84238121 12 6 C8.86152691 6 7.61540997 5.51037331 4.875 4.125 C4.17117188 3.77695312 3.46734375 3.42890625 2.7421875 3.0703125 C1 2 1 2 0 0 Z " fill="#C09532" transform="translate(441,265)"/>
<path d="M0 0 C3.94727588 -0.17942163 6.5980513 -0.09350689 10 2 C9.67 2.66 9.34 3.32 9 4 C6.03 3.67 3.06 3.34 0 3 C0 2.01 0 1.02 0 0 Z " fill="#AA7101" transform="translate(315,249)"/>
<path d="M0 0 C0.33 1.32 0.66 2.64 1 4 C-6.425 3.01 -6.425 3.01 -14 2 C-14 1.67 -14 1.34 -14 1 C-4.58997722 -0.14806378 -4.58997722 -0.14806378 0 0 Z " fill="#C3912D" transform="translate(477,205)"/>
<path d="M0 0 C3.39417765 3.12621626 5.6062718 5.56541027 7 10 C6.34 10.66 5.68 11.32 5 12 C5 10.68 5 9.36 5 8 C4.01 8 3.02 8 2 8 C1.34 5.36 0.68 2.72 0 0 Z " fill="#CAA12C" transform="translate(320,184)"/>
<path d="M0 0 C3.70129644 0.38961015 5.61879622 1.11749016 8 4 C5.13822943 5.43088528 3.06624227 4.59991697 0 4 C-0.33 3.01 -0.66 2.02 -1 1 C-0.67 0.67 -0.34 0.34 0 0 Z " fill="#D59A23" transform="translate(213,192)"/>
<path d="M0 0 C3.63 0 7.26 0 11 0 C11.66 1.65 12.32 3.3 13 5 C12.67 5.66 12.34 6.32 12 7 C11.2575 5.7934375 11.2575 5.7934375 10.5 4.5625 C7.04304061 1.01911662 4.85211791 1.2426059 0 1 C0 0.67 0 0.34 0 0 Z " fill="#B28F20" transform="translate(285,187)"/>
<path d="M0 0 C0.8353125 1.0209375 0.8353125 1.0209375 1.6875 2.0625 C-2.12739674 3.52976798 -4.60261622 2.49586419 -8.3125 1.0625 C-7.3125 -0.9375 -7.3125 -0.9375 -5 -1.8125 C-2.3125 -1.9375 -2.3125 -1.9375 0 0 Z " fill="#DA9D23" transform="translate(196.3125,177.9375)"/>
<path d="M0 0 C0.66 0 1.32 0 2 0 C2.625 1.875 2.625 1.875 3 4 C2.34 4.66 1.68 5.32 1 6 C-2.29714793 5.67028521 -3.6226839 5.3773161 -6 3 C-4.0625 2.4375 -4.0625 2.4375 -2 2 C-1.67 2.33 -1.34 2.66 -1 3 C-0.67 2.01 -0.34 1.02 0 0 Z " fill="#EBA516" transform="translate(347,134)"/>
<path d="M0 0 C2.97 0 5.94 0 9 0 C9.33 0.99 9.66 1.98 10 3 C2.25 3.125 2.25 3.125 0 2 C0 1.34 0 0.68 0 0 Z " fill="#F2CC38" transform="translate(264,266)"/>
<path d="M0 0 C1.32 1.65 2.64 3.3 4 5 C3.34 6.65 2.68 8.3 2 10 C1.34 10 0.68 10 0 10 C0 6.7 0 3.4 0 0 Z " fill="#FBAE05" transform="translate(260,264)"/>
<path d="M0 0 C2.475 0.99 2.475 0.99 5 2 C6.3125 5.625 6.3125 5.625 7 9 C6.01 9.495 6.01 9.495 5 10 C3.35 6.7 1.7 3.4 0 0 Z " fill="#BF9139" transform="translate(198,245)"/>
<path d="M0 0 C-0.99 0.33 -1.98 0.66 -3 1 C-3.33 2.65 -3.66 4.3 -4 6 C-5.32 5.01 -6.64 4.02 -8 3 C-7.67 2.01 -7.34 1.02 -7 0 C-4.3333581 -1.33332095 -2.83319697 -0.67102033 0 0 Z " fill="#F6B31B" transform="translate(142,228)"/>
<path d="M0 0 C0.66 0.33 1.32 0.66 2 1 C1.67 2.32 1.34 3.64 1 5 C1.66 5 2.32 5 3 5 C3.33 7.31 3.66 9.62 4 12 C1.47650757 8.87567603 -0.27256146 5.61939504 -2 2 C-1.34 1.34 -0.68 0.68 0 0 Z " fill="#BF9A43" transform="translate(370,169)"/>
<path d="M0 0 C2.97 0.495 2.97 0.495 6 1 C4.23043542 3.14210449 3.12424348 3.96060573 0.4375 4.8125 C-0.7690625 4.9053125 -0.7690625 4.9053125 -2 5 C-2.66 4.34 -3.32 3.68 -4 3 C-2.68 3 -1.36 3 0 3 C0 2.01 0 1.02 0 0 Z " fill="#D7A326" transform="translate(390,174)"/>
<path d="M0 0 C0.66 0.33 1.32 0.66 2 1 C1.29445932 4.66881155 -0.27735506 7.70450534 -2 11 C-2.66 11 -3.32 11 -4 11 C-3.125 6.25 -3.125 6.25 -2 4 C-1.34 4 -0.68 4 0 4 C0 2.68 0 1.36 0 0 Z " fill="#BA9846" transform="translate(207,169)"/>
<path d="M0 0 C0.99 0 1.98 0 3 0 C2.67 2.97 2.34 5.94 2 9 C1.34 9 0.68 9 0 9 C0 6.03 0 3.06 0 0 Z " fill="#EEBD42" transform="translate(280,259)"/>
<path d="M0 0 C0 0.66 0 1.32 0 2 C-5.61 2 -11.22 2 -17 2 C-17 1.34 -17 0.68 -17 0 C-14.54203147 -0.19436491 -12.08390706 -0.3807742 -9.625 -0.5625 C-8.92632812 -0.61857422 -8.22765625 -0.67464844 -7.5078125 -0.73242188 C-2.2265625 -1.11328125 -2.2265625 -1.11328125 0 0 Z " fill="#B77803" transform="translate(223,251)"/>
<path d="M0 0 C1.2065625 0.0309375 1.2065625 0.0309375 2.4375 0.0625 C2.4375 1.0525 2.4375 2.0425 2.4375 3.0625 C1.7775 3.0625 1.1175 3.0625 0.4375 3.0625 C0.7675 4.3825 1.0975 5.7025 1.4375 7.0625 C0.7775 7.0625 0.1175 7.0625 -0.5625 7.0625 C-1.5525 5.0825 -2.5425 3.1025 -3.5625 1.0625 C-2.5625 0.0625 -2.5625 0.0625 0 0 Z " fill="#E2AC36" transform="translate(429.5625,243.9375)"/>
<path d="M0 0 C0.66 0.66 1.32 1.32 2 2 C1.60495559 4.9628331 0.40182371 7.38326241 -1 10 C-1.66 9.34 -2.32 8.68 -3 8 C-3 6.68 -3 5.36 -3 4 C-2.01 4 -1.02 4 0 4 C0 2.68 0 1.36 0 0 Z " fill="#F9AD14" transform="translate(139,207)"/>
<path d="M0 0 C-3.86329714 2.57553142 -7.84355437 4.92177718 -12 7 C-12 6.01 -12 5.02 -12 4 C-11.01 4 -10.02 4 -9 4 C-8.67 3.01 -8.34 2.02 -8 1 C-5.29120665 -0.35439668 -2.99066732 -0.06501451 0 0 Z " fill="#C29331" transform="translate(463,207)"/>
<path d="M0 0 C-1.45537568 0.83848804 -2.91440373 1.67063934 -4.375 2.5 C-5.59316406 3.19609375 -5.59316406 3.19609375 -6.8359375 3.90625 C-9 5 -9 5 -11 5 C-11 4.34 -11 3.68 -11 3 C-10.34 3 -9.68 3 -9 3 C-9 2.34 -9 1.68 -9 1 C-2.25 -1.125 -2.25 -1.125 0 0 Z " fill="#C59C34" transform="translate(293,226)"/>
<path d="M0 0 C0.66 0.99 1.32 1.98 2 3 C0.7934375 3.433125 0.7934375 3.433125 -0.4375 3.875 C-3.1326468 4.73262568 -3.1326468 4.73262568 -4 7 C-4.99 7 -5.98 7 -7 7 C-5.66667905 3.00003714 -3.5042173 2.16217663 0 0 Z " fill="#CAA53B" transform="translate(276,168)"/>
<path d="M0 0 C1.52519276 0.08937803 3.04681929 0.24537146 4.5625 0.4375 C5.80193359 0.59025391 5.80193359 0.59025391 7.06640625 0.74609375 C7.70449219 0.82988281 8.34257812 0.91367188 9 1 C9 1.33 9 1.66 9 2 C6.69 2 4.38 2 2 2 C2 3.65 2 5.3 2 7 C1.34 7 0.68 7 0 7 C-0.38133299 5.0085944 -0.71325582 3.00720923 -1 1 C-0.67 0.67 -0.34 0.34 0 0 Z " fill="#F2BF41" transform="translate(275,99)"/>
<path d="M0 0 C1.37562854 1.28965176 2.70766393 2.62689293 4 4 C4 4.66 4 5.32 4 6 C1.69 6 -0.62 6 -3 6 C-2.67 5.01 -2.34 4.02 -2 3 C-1.34 3.33 -0.68 3.66 0 4 C0 2.68 0 1.36 0 0 Z " fill="#916D18" transform="translate(223,249)"/>
<path d="M0 0 C0.66 0.99 1.32 1.98 2 3 C0.515 5.475 0.515 5.475 -1 8 C-2.32 7.67 -3.64 7.34 -5 7 C-5 6.34 -5 5.68 -5 5 C-3.68 5 -2.36 5 -1 5 C-0.67 3.35 -0.34 1.7 0 0 Z " fill="#D8AE30" transform="translate(334,240)"/>
<path d="M0 0 C-2.85478326 1.90318884 -4.41941308 2.4619099 -7.6875 3.125 C-8.49574219 3.29257813 -9.30398438 3.46015625 -10.13671875 3.6328125 C-10.75160156 3.75398437 -11.36648438 3.87515625 -12 4 C-8.07829422 -0.09996514 -5.68430095 -0.10526483 0 0 Z " fill="#C29A31" transform="translate(387,179)"/>
<path d="M0 0 C1.32 0 2.64 0 4 0 C3.34 1.32 2.68 2.64 2 4 C-2.75 3.25 -2.75 3.25 -5 1 C-3.35 1 -1.7 1 0 1 C0 0.67 0 0.34 0 0 Z " fill="#C89F30" transform="translate(343,140)"/>
<path d="M0 0 C0.66 0 1.32 0 2 0 C0.34832443 3.5786304 -1.78286492 6.74820188 -4 10 C-4.33 9.01 -4.66 8.02 -5 7 C-4.07421875 5.17578125 -4.07421875 5.17578125 -2.6875 3.3125 C-2.23761719 2.68988281 -1.78773438 2.06726563 -1.32421875 1.42578125 C-0.88722656 0.95527344 -0.45023437 0.48476562 0 0 Z " fill="#BD972F" transform="translate(355,127)"/>
<path d="M0 0 C0.33 0.66 0.66 1.32 1 2 C0.34 2 -0.32 2 -1 2 C-1.33 2.99 -1.66 3.98 -2 5 C-4.31 5.33 -6.62 5.66 -9 6 C-6.45543849 3.03134491 -3.51005335 1.6380249 0 0 Z " fill="#CB9A2F" transform="translate(229,114)"/>
<path d="M0 0 C1.65 0 3.3 0 5 0 C4.67 1.98 4.34 3.96 4 6 C3.01 5.67 2.02 5.34 1 5 C0.67 3.35 0.34 1.7 0 0 Z " fill="#956303" transform="translate(229,263)"/>
<path d="M0 0 C2.64 0 5.28 0 8 0 C8 0.99 8 1.98 8 3 C5.36 2.67 2.72 2.34 0 2 C0 1.34 0 0.68 0 0 Z " fill="#F7AF11" transform="translate(216,259)"/>
<path d="M0 0 C0.99 0 1.98 0 3 0 C2.64950425 3.24208567 2.43778819 4.61527704 -0.0625 6.8125 C-0.701875 7.204375 -1.34125 7.59625 -2 8 C-1.33333333 5.33333333 -0.66666667 2.66666667 0 0 Z " fill="#D5A82B" transform="translate(500,255)"/>
<path d="M0 0 C4.68091299 0 5.62101604 0.99645871 9 4 C6.03 4 3.06 4 0 4 C-0.33 3.34 -0.66 2.68 -1 2 C-0.67 1.34 -0.34 0.68 0 0 Z " fill="#E1A224" transform="translate(299,169)"/>
<path d="M0 0 C0.99 0.33 1.98 0.66 3 1 C3.6875 3.0625 3.6875 3.0625 4 5 C1.69 5 -0.62 5 -3 5 C-1.125 1.125 -1.125 1.125 0 0 Z " fill="#C6A54E" transform="translate(391,154)"/>
<path d="M0 0 C-5.41538462 4.06153846 -5.41538462 4.06153846 -8.375 3.75 C-8.91125 3.5025 -9.4475 3.255 -10 3 C-9.01 2.67 -8.02 2.34 -7 2 C-7 1.34 -7 0.68 -7 0 C-3.98968256 -0.93423645 -3.13349732 -1.04449911 0 0 Z " fill="#BF9130" transform="translate(242,140)"/>
<path d="M0 0 C1.125 1.6875 1.125 1.6875 2 4 C1.125 6.75 1.125 6.75 0 9 C0.66 9.33 1.32 9.66 2 10 C0.68 9.67 -0.64 9.34 -2 9 C-1.51421457 5.87709365 -1.0013988 3.00419641 0 0 Z " fill="#E5A820" transform="translate(330,127)"/>
<path d="M0 0 C3.3 0.33 6.6 0.66 10 1 C6.00889681 2.9955516 4.30013434 3.19546065 0 3 C0 2.01 0 1.02 0 0 Z " fill="#DABA3A" transform="translate(278,125)"/>
<path d="M0 0 C0.99 0.33 1.98 0.66 3 1 C2.67 2.32 2.34 3.64 2 5 C0.68 5 -0.64 5 -2 5 C-1.34 3.35 -0.68 1.7 0 0 Z " fill="#E8B31C" transform="translate(365,274)"/>
<path d="M0 0 C2 2 2 2 2.125 4.625 C2.08375 5.40875 2.0425 6.1925 2 7 C1.01 7 0.02 7 -1 7 C-1.04254356 5.00045254 -1.04080783 2.99958364 -1 1 C-0.67 0.67 -0.34 0.34 0 0 Z " fill="#F9B007" transform="translate(226,263)"/>
<path d="M0 0 C1.42020201 0.22906484 2.83845901 0.47251758 4.25 0.75 C4.25 1.08 4.25 1.41 4.25 1.75 C1.28 1.75 -1.69 1.75 -4.75 1.75 C-5.08 2.74 -5.41 3.73 -5.75 4.75 C-6.74 4.42 -7.73 4.09 -8.75 3.75 C-6.12072175 -0.02244271 -4.38091087 -0.51743042 0 0 Z " fill="#BF9939" transform="translate(370.75,257.25)"/>
<path d="M0 0 C-0.33 1.32 -0.66 2.64 -1 4 C-2.65 4.33 -4.3 4.66 -6 5 C-4.87312259 1.61936778 -3.78825335 0 0 0 Z " fill="#DFAF25" transform="translate(487,249)"/>
<path d="M0 0 C-0.33 1.65 -0.66 3.3 -1 5 C-1.391875 4.525625 -1.78375 4.05125 -2.1875 3.5625 C-4.40808374 1.64820367 -6.13375709 1.38733012 -9 1 C-5.64919071 -1.10976881 -3.77897651 -1.0497157 0 0 Z " fill="#E4B333" transform="translate(213,191)"/>
<path d="M0 0 C0.625 1.875 0.625 1.875 1 4 C0.34 4.66 -0.32 5.32 -1 6 C-2.32 6 -3.64 6 -5 6 C-5 5.34 -5 4.68 -5 4 C-4.34 4 -3.68 4 -3 4 C-3 3.34 -3 2.68 -3 2 C-2.01 2 -1.02 2 0 2 C0 1.34 0 0.68 0 0 Z " fill="#EAAF23" transform="translate(249,131)"/>
<path d="M0 0 C0.66 0 1.32 0 2 0 C1.67 1.65 1.34 3.3 1 5 C-0.32 5.33 -1.64 5.66 -3 6 C-3 5.34 -3 4.68 -3 4 C-2.34 4 -1.68 4 -1 4 C-0.67 2.68 -0.34 1.36 0 0 Z " fill="#F9AA0A" transform="translate(298,272)"/>
<path d="M0 0 C0.99 0.33 1.98 0.66 3 1 C3 2.65 3 4.3 3 6 C2.01 5.67 1.02 5.34 0 5 C0 4.01 0 3.02 0 2 C-0.66 1.67 -1.32 1.34 -2 1 C-1.34 0.67 -0.68 0.34 0 0 Z " fill="#D59F17" transform="translate(314,216)"/>
<path d="M0 0 C1.64826111 2.96687001 2.44271087 5.65626525 3 9 C2.01 8.34 1.02 7.68 0 7 C0 6.34 0 5.68 0 5 C-0.99 4.67 -1.98 4.34 -3 4 C-2.01 3.67 -1.02 3.34 0 3 C0 2.01 0 1.02 0 0 Z " fill="#F6AD12" transform="translate(241,111)"/>
<path d="M0 0 C2.72426311 2.35277269 3.8141763 4.62496331 5 8 C4.01 8 3.02 8 2 8 C2 6.68 2 5.36 2 4 C1.34 4 0.68 4 0 4 C0 2.68 0 1.36 0 0 Z " fill="#6E581D" transform="translate(227,255)"/>
<path d="M0 0 C2.08954032 4.17908064 2.16552619 4.80410573 1 9 C0.34 9 -0.32 9 -1 9 C-0.67 6.03 -0.34 3.06 0 0 Z " fill="#E2B044" transform="translate(266,238)"/>
<path d="M0 0 C0.66 0 1.32 0 2 0 C1.34 1.98 0.68 3.96 0 6 C-1.32 5.67 -2.64 5.34 -4 5 C-2.71937515 3.2925002 -1.38232443 1.62626404 0 0 Z " fill="#D2A930" transform="translate(297,200)"/>
</svg>
